<?xml version="1.0" encoding="utf-8"?>
<!-- Generator: Adobe Illustrator 27.2.0, SVG Export Plug-In . SVG Version: 6.00 Build 0)  -->
<svg version="1.1" xmlns="http://www.w3.org/2000/svg" xmlns:xlink="http://www.w3.org/1999/xlink" x="0px" y="0px"
	 viewBox="0 0 710.6 728.7" style="enable-background:new 0 0 710.6 728.7;" xml:space="preserve">
<style type="text/css">
	.st0{fill:#FFFFFF;}
	.st1{display:none;}
	.st2{display:inline;fill:none;stroke:#00AEEF;stroke-width:1.3855;stroke-miterlimit:10;}
	.st3{display:inline;fill:#00AEEF;}
	.st4{font-family:'ChronicleTextG1-SemiItalic';}
	.st5{font-size:44.3364px;}
	.st6{letter-spacing:1;}
</style>
<g id="Layer_1">
	<g>
		<g>
			<g>
				<path class="st0" d="M106.9,533.4c9.7-1.3,11.8-5.5,11.8-15.8v-40c0-5.1-2.9-9.5-11.8-9.8V465h30.1l19.2,51h0.7l18-51h28v2.8
					c-8.4,0.3-10.2,1.8-10.2,5.4V528c0,3.7,1.8,5,10.2,5.4v2.8h-35.1v-2.8c6.8-0.3,9.2-1.5,9.2-5.4v-54.4h-0.6l-22.7,62.6h-5.5
					l-24.7-62.6h-0.7v44c0,10.3,2,14.4,12.1,15.8v2.8h-28V533.4z"/>
				<path class="st0" d="M208.1,533.4c8.6-0.3,10.4-1.7,10.4-5.4v-54.9c0-3.6-1.8-5-10.4-5.4V465h36.6v2.8
					c-8.6,0.3-10.4,1.8-10.4,5.4V528c0,3.7,1.8,5,10.4,5.4v2.8h-36.6V533.4z"/>
				<path class="st0" d="M265.5,480.3h-0.3v37.3c0,10.3,2.3,14.6,12.7,15.8v2.8h-28.6v-2.8c9.7-1.3,11.8-5.5,11.8-15.8v-39.1
					c0-5.8-2.9-10.3-11.8-10.7V465h24.1l38.7,50.3h0.3v-31.7c0-10.2-3-14.6-13.3-15.8V465h28.7v2.8c-9.6,1.4-11.2,5.6-11.2,15.8
					v53.7h-6.8L265.5,480.3z"/>
				<path class="st0" d="M329.5,533.4c8.4-0.3,10.2-1.7,10.2-5.4v-54.9c0-3.6-1.8-5-10.2-5.4V465h61.3l0.5,24.2l-3.3,0.1
					c-5.7-14.1-9.4-20.9-22.1-20.9h-10.5V498h3.7c7.8,0,11.5-2.2,14.6-12.5h2.7v28.5h-2.7c-3.2-10.3-6.8-12.6-14.6-12.6h-3.7v31.5
					h9.9c15,0,19.4-7,25.5-22.6l3.3,0.2l-0.7,25.7h-63.9V533.4z"/>
				<path class="st0" d="M426.5,528c0,3.9,2.7,5,9.7,5.4v2.8h-35.6v-2.8c8.4-0.3,10.2-1.7,10.2-5.4v-54.9c0-3.6-1.8-5-10.2-5.4V465
					h35.3c21.4,0,28.4,8.2,28.4,17.3c0,8.7-5.3,15.2-21,17.8v0.3c14.8,0.4,18.6,6.6,19.7,15.4l0.9,8.2c0.9,7.7,2.5,8.9,10.5,9.2v2.8
					c-3.5,0.4-6.8,0.6-9.8,0.6c-14.2,0-16.5-3.9-17.2-12.8l-0.7-8.6c-0.8-10.4-3.7-13.3-15-13.3h-5V528z M432.8,498.8
					c12.3,0,15-4.4,15-15.6c0-9.6-3.7-14.9-16-14.9h-5.4v30.5H432.8z"/>
				<path class="st0" d="M474.7,476.5c-2.2-5.8-4.1-7.5-11.5-8.7V465h37v2.8c-9.6,0.5-11,2.6-9.2,7.5l16.8,45.9h0.6l14.7-39.8
					c3.4-9.1,2.2-12-7.5-13.6V465h25.4v2.8c-7.3,1.5-9.5,4.5-13.5,15l-21,54.5h-8.7L474.7,476.5z"/>
				<path class="st0" d="M592.5,525.2L570.6,465h-25.9v2.8c9.1,1.4,12.8,4.1,9,14.2l-14,36.2c-3.9,9.9-6.7,13.6-13.6,15.2v2.8h24.7
					v-2.8c-9.1-1.4-10.5-4.1-6.7-14.2l3.6-9.5h23l5.5,15.9c1.9,5.1,0.1,7.3-9.7,7.8v2.8h37.2v-2.8
					C596.1,532.1,594.5,530.5,592.5,525.2z M549,506.4l10.3-27.7h0.7l9.6,27.7H549z"/>
			</g>
			<g>
				<g>
					<g>
						<g>
							<g>
								<path class="st0" d="M596.1,463.8c5.1,0,9.4,4,9.4,9.3c0,5.4-4.3,9.4-9.4,9.4c-5.1,0-9.4-4-9.4-9.4
									C586.7,467.9,591,463.8,596.1,463.8z M596.1,481.1c4.3,0,7.7-3.4,7.7-8c0-4.5-3.3-7.9-7.7-7.9c-4.4,0-7.7,3.4-7.7,7.9
									C588.4,477.7,591.7,481.1,596.1,481.1z M592.5,467.7h4.2c2.6,0,3.8,1,3.8,3.1c0,2-1.2,2.8-2.9,3l3.1,4.8h-1.8l-3-4.7h-1.8
									v4.7h-1.7V467.7z M594.2,472.5h1.8c1.5,0,2.9-0.1,2.9-1.8c0-1.4-1.2-1.7-2.4-1.7h-2.2V472.5z"/>
							</g>
						</g>
					</g>
				</g>
			</g>
		</g>
		<g>
			<g>
				<path class="st0" d="M115.1,609.3v-25.2c0-2.3-1.3-3.2-6.5-3.4v-1.6h20v1.6c-5.1,0.2-6.1,1-6.1,3.4v24.5c0,8.4,5.1,11.5,12,11.5
					c3.2,0,5.9-1,7.8-2.9c2.2-2.2,3.3-4.9,3.3-9.6v-17.9c0-6-1.7-8.3-7.9-9.1v-1.5h16.8v1.5c-5.7,0.9-6.7,3.1-6.7,9.1v19
					c0,8.1-5.2,14.2-16.1,14.2C121.4,622.9,115.1,618.1,115.1,609.3z"/>
				<path class="st0" d="M176.4,586.8h-0.1v24.5c0,6.1,1.2,8.3,7.4,9.1v1.5H167v-1.5c5.7-0.9,7.1-3,7.1-9.1v-24.6
					c0-3.2-1.9-5.9-7.1-6v-1.6H180l24,32h0.1v-21.4c0-6-1.7-8.3-7.9-9.1v-1.5h16.8v1.5c-5.8,0.9-6.7,3.1-6.7,9.1v33h-2.9
					L176.4,586.8z"/>
				<path class="st0" d="M226.5,620.3c5.4-0.2,6.7-1.1,6.7-3.4v-32.8c0-2.3-1.3-3.2-6.7-3.4v-1.6h20.7v1.6c-5.4,0.2-6.6,1.1-6.6,3.4
					v32.8c0,2.3,1.2,3.2,6.6,3.4v1.6h-20.7V620.3z"/>
				<path class="st0" d="M264.8,586c-1.4-3.6-2.5-4.6-7.1-5.4v-1.5H278v1.5c-5.7,0.3-6.6,1.6-5.5,4.6l10.4,28.8h0.4l9.4-25.1
					c2.1-5.7,1.4-7.4-4.4-8.3v-1.5h14.9v1.5c-4.4,0.9-5.7,2.8-8.2,9.1l-12.9,33.1h-3.4L264.8,586z"/>
				<path class="st0" d="M313.2,620.3c5.3-0.2,6.6-1.1,6.6-3.4v-32.8c0-2.3-1.3-3.2-6.6-3.4v-1.6h35.6l0.2,13.4l-1.6,0.1
					c-3-8-5.2-11.6-12.5-11.6h-7.6v17.8h3.2c4.8,0,7-1.2,8.8-7.7h1.5v17.3h-1.5c-1.8-6.5-4-7.8-8.8-7.8h-3.2V620h7.4
					c8.7,0,11.5-4,14.6-12.6l1.6,0.1l-0.4,14.4h-37.4V620.3z"/>
				<path class="st0" d="M381.8,616.9c0,2.4,1.2,3.2,6.3,3.4v1.6h-20.4v-1.6c5.3-0.2,6.6-1.1,6.6-3.4v-32.8c0-2.3-1.3-3.2-6.6-3.4
					v-1.6h19.4c12.7,0,17.1,4.8,17.1,10.4c0,5.2-3.2,9.2-12.2,10.7v0.2c8.6,0.5,10.5,4.1,11.3,9.6l0.6,4.5c0.8,4.7,1.8,5.5,6.7,5.7
					v1.5c-1.6,0.3-3.5,0.4-4.9,0.4c-7.9,0-9.3-2.2-9.8-7.8l-0.5-5.3c-0.6-6.2-2.5-7.8-9.5-7.8h-4.2V616.9z M386.4,599.5
					c8,0,9.8-3.3,9.8-9.6c0-5.7-2.5-8.9-10.4-8.9h-4v18.5H386.4z"/>
				<path class="st0" d="M425.3,608.2h1.6c3.5,7.8,7.9,12.7,13.9,12.7c6,0,8.8-4,8.8-7.8c0-5-3.4-7-11-9.6
					c-6.2-2.1-12.5-4.2-12.5-12.2c0-8.1,6.2-13.2,14.5-13.2c3.6,0,6.7,0.9,8.9,1.8l2.1-2.2h1.4v13.2h-1.7c-2.9-7.1-6.7-11-11.6-11
					c-4.2,0-7.6,2.7-7.6,7.4c0,4.9,3.7,6.6,10.8,8.9c5.9,2,12.1,4.2,12.1,12.2c0,6.8-4,14.2-14.8,14.2c-3.5,0-7.5-1-10.1-2.3
					l-3.3,2.6h-1.4V608.2z"/>
				<path class="st0" d="M470.8,620.3c5.4-0.2,6.7-1.1,6.7-3.4v-32.8c0-2.3-1.3-3.2-6.7-3.4v-1.6h20.7v1.6c-5.4,0.2-6.6,1.1-6.6,3.4
					v32.8c0,2.3,1.2,3.2,6.6,3.4v1.6h-20.7V620.3z"/>
				<path class="st0" d="M515.3,620.3c5.5-0.1,7.1-1.1,7.1-3.4V581H520c-5.2,0-8,3.9-11.3,11.9l-1.6-0.1l0.3-13.6h37.5l0.4,13.6
					l-1.6,0.1c-3.2-7.6-6.1-11.9-11.3-11.9h-2.5v35.9c0,2.3,1.6,3.3,7.2,3.4v1.6h-21.8V620.3z"/>
				<path class="st0" d="M588.2,588c2.9-5,2.6-6.5-3-7.4v-1.5h14.6v1.5c-4,0.7-5.8,2-9.1,7.5L582,603v13.9c0,2.3,1.2,3.2,6.6,3.4
					v1.6h-20.7v-1.6c5.4-0.2,6.7-1.1,6.7-3.4v-12.8l-10.9-19c-1.7-2.8-2.9-3.8-6.7-4.5v-1.5h19.8v1.5c-5.9,0.3-6.3,1.8-4.7,4.7
					l8.6,15.6L588.2,588z"/>
			</g>
		</g>
		<g>
			<g>
				<g>
					<path class="st0" d="M491.6,249.9c-0.4-0.3-1.5-1.5-2-1.8c-0.5-0.4-1-2.7-1.1-2.9c-0.5-1.7-0.5-3.6-1-5.3
						c-0.2-0.8-0.2-1.7-0.2-1.9c0.1-0.3,1.2,0.1,1.5-0.2c0.4-0.4,0.3-0.9,0.1-1.1c-0.2-0.3-0.8-1.1-0.7-1.5c0.1-0.4,0-0.7-0.2-1.1
						c-0.2-0.5-0.3-0.9-0.5-1.4c-0.2-0.7-0.3-1.4-0.8-2c-0.5-0.6-0.9-1.6-1.3-2.3c-0.1-0.2-0.2-0.3-0.2-0.5c-0.3-0.7-1.1-1-1.4-1.7
						c-0.3-1-0.5-2-0.9-3c-0.2-0.6-1.4-3.3-1.7-3.7c-0.5-1-1.8-2.3-2.8-2.9c-0.2-0.1-0.3-0.4-0.4-0.7c-0.4-1-0.8-1.9-1.5-2.7
						c-0.1-0.2-0.2-0.4-0.4-0.6c-1.1-1.7-5.4-6.2-6.8-7.8c-0.4-0.5-1.1-0.8-1.6-1.2c-0.1-0.1-1.8-1.2-2-0.9c-0.1,0.2,0.2,0.7,0,0.6
						c-0.3-0.1-1.7-2.4-1.9-2.5c-0.2-0.1-0.1,0.1-0.2,0.3c-0.1,0.2,1.4,2.5,1.1,2.6c-0.2,0.1-0.1,0.1-0.3,0.1
						c-0.3-0.1-2.7-3.5-2.9-3.4c-0.2,0.1-1.6-2-1.6-1.7c0,0.2,1.3,2.7,1.5,2.7c0.3,0.2,2.1,3,1.9,3.3c-0.9-0.8-2.1-2.4-2.7-2.2
						c-0.2,0.1,1.1,1.7,0.2,2c-0.3-0.3-4.6-5-5-5.1c-0.7-0.1,1.5,1.8,1.3,2.1c-0.3,0.5,3.3,4.5,3.3,5.1c0,0.5-1.1,0.8-1.8,0.8
						c-0.1,0-0.4,0.1-0.3,0.2c0,0.1,0.1,0.2,0.2,0.4h0c0.3,0.5,2.1,3.4,2.3,3.9c0.2,0.6,0.4,1,0.5,1.6c0.2,0.7,0.5,1.5,0.9,2.2
						c0.1,0.2,0.2,0.5,0.2,0.7c0,0.2,0.1,0.5,0,0.7c0,0.1-0.1,0.1-0.1,0.2l0.2,0.1c0.1,0,0.4,0.1,0.6,0.5c0.4,0.7,0.2,1.8-0.4,2.2
						c-0.1,0.1-0.3,0.2-0.4,0.2c0,0-0.2,0-0.2,0c0,0-0.1,0-0.1,0c-0.2,0-0.4-0.1-0.6-0.3c0,0-0.1-0.1-0.1-0.1l0,0
						c0.1,0.1,0.1,0.3,0.1,0.4c0.2,0.7,0.3,1.5,0.3,2.2c0,0,0,0,0,0c0.2,0.2,0.4,0.4,0.4,0.8c0,0.3,0.1,0.7,0,1
						c-0.1,0.3-0.1,0.6,0,1c0,0.4,0.1,0.8,0,1.3c0.4,0.6,0.5,1.2,0.5,1.6c0,0.2,0,0.4,0.1,0.5c0,0.2,0.1,0.3,0.2,0.5
						c0,0.1,0.1,0.2,0.1,0.3c0,0,0,0,0-0.1c0.2-0.2,0.5-0.4,0.8-0.4c0.5,0,1,0.4,1.1,0.9c0.1,0.7,0.1,1.4,0.1,2.2l0.1,0.8
						c0,0.1,0,0.2-0.1,0.3c-0.1,0.1-0.1,0.3-0.2,0.5c-0.2,0.3-0.5,0.5-0.9,0.5h0c-0.2,0-0.5-0.1-0.6-0.3c0,0.4-0.1,0.6-0.3,0.8
						c0.2,0.2,0.3,0.4,0.4,0.7c0,0,0,0,0,0c0,0,0.1,0.1,0.1,0.1c0.2,0.2,0.5,0.6,0.5,1c0,0.6-0.1,1.1-0.2,1.6
						c-0.1,0.4-0.1,0.6,0,0.9c0.3,1.1,0.1,2.1-0.6,3.2c-0.1,0.1-0.1,0.1-0.1,0.1c0.6,0.4,0.9,1.1,0.8,1.9c-0.1,0.6,0.2,1.7,0.4,2.7
						c0.2,1,0.4,1.9,0.4,2.6c0,0.5-0.2,1-0.4,1.4c-0.1,0.4-0.3,0.8-0.3,1.1c0,1-0.1,2-0.5,3.2c-0.1,0.4-0.2,0.8,0,1.4
						c0.1,0.3,0.1,0.8-0.1,1.2c-0.1,0.3-0.2,0.5-0.2,0.7c0,0.8-0.1,1.6-0.3,2.2h0c0,0,0.1,0.1,0.1,0.2c0.1,0.2,0.2,0.4,0.3,0.7
						c0.1,0.6-0.1,1.1-0.2,1.5c-0.4,1-0.1,1.3,0.1,1.6c0.1,0.1,0.2,0.2,0.2,0.3c0.1,0.3,0.1,0.7-0.2,1c0.1,0.1,0.1,0.2,0.1,0.3
						c0,0.2,0,0.5-0.4,0.9c-0.1,0-0.1,0.1-0.1,0.1c0.1,0.4,0,0.9-0.6,1.2c0,0,0,0.1,0,0.2c-0.1,1.2-0.6,2.3-1.1,3.3
						c-0.2,0.4-0.3,0.8-0.5,1.2l0.1,0l0.1,0c0.3,0,0.6,0.2,0.7,0.5l0.2,0.4l-0.3,0.4c0,0,0,0.1-0.1,0.2c-0.1,0.3-0.3,1-1.2,1.2
						c0,0-0.1,0.2-0.1,0.2c-0.4,1.1-0.9,2.2-1.3,3.3c0.1-0.1,0.1-0.2,0.2-0.2c0.2-0.2,0.5-0.4,1-0.4c0.1,0,0.2,0.1,0.4,0.1
						c0.1-0.5,0.4-1,0.7-1.4c0.3-0.3,0.8-0.5,1.2-0.5c0,0,0.2,0,0.2,0c0.5,0.1,0.7,0.4,0.9,0.7c0.1,0.1,0.1,0.2,0.2,0.2
						c0.2,0.2,0.3,0.6,0.2,0.8c-0.1,0.2-0.1,0.3-0.2,0.4c-0.2,0.5-0.4,1-0.6,1.4c-0.3,0.5-0.9,0.7-1.3,0.7c0,0-0.2,0-0.2,0
						c-0.2,0-0.3-0.1-0.5-0.2c-0.1,0.2-0.2,0.4-0.3,0.6c-0.1,0.2-0.1,0.3-0.2,0.4c-0.3,0.6-0.5,1.3-0.6,2c0.1,0,0.2-0.1,0.3-0.1
						c0.3,0,0.5,0.1,0.7,0.2c0.2,0.2,0.6,0.7,0.4,1.2c-0.1,0.4-0.2,0.8-0.4,1.2c-0.1,0.3-0.4,0.5-0.6,0.6l-0.2,0.1
						c-0.1,0.1-0.2,0.1-0.3,0.1c-0.2,0-0.3,0-0.4-0.1l-0.1-0.1c-0.1,0-0.1-0.1-0.2-0.1c-0.2,0.4-0.4,0.8-0.7,1.1
						c0.1,1-0.3,1.9-0.6,2.6c-0.3,0.7-0.6,1.3-0.9,1.8c-0.3,0.5-0.6,1-0.7,1.4c-0.1,0.2-0.1,0.3-0.1,0.4c-0.3,1.3-1.4,2.5-2,3.1
						c0,0.2,0,0.3,0,0.4c0,0.4-0.1,0.8-0.3,1.2c-0.1,0.1-0.1,0.2-0.2,0.3l0,0c0.2,0.1,0.3,0.2,0.4,0.4l0.1,0.3
						c0.1,0.1,0.1,0.3,0.1,0.4c0,0.2-0.1,0.3-0.1,0.5c-0.4,0.9-0.8,1.7-1.2,2.6c-0.3,0.6-0.7,0.8-1,0.8c0,0-0.1,0-0.1,0
						c0.1,0.2,0.2,0.3,0.2,0.5c0,0.5-0.2,1-0.5,1.4c-0.2,0.3-0.6,0.3-0.7,0.3c-0.1,0-0.1,0-0.2,0c0,0,0,0-0.1,0
						c-0.1,0.4-0.4,0.8-1,1c-0.4,0.1-0.4,0.2-0.3,0.4c0.1,0.7-0.2,1.4-1,1.8c-0.5,0.3-0.6,0.5-0.7,0.9c0,0.2-0.1,0.4-0.1,0.5
						c-0.2,0.5-0.5,0.8-0.7,1c-0.1,0.1-0.2,0.2-0.2,0.2c-0.2,0.7-0.5,1.1-0.9,1.6l-0.1,0.1c-0.5,0.6-0.6,0.7-0.5,0.9
						c0.1,0.3,0.1,0.6,0,0.9c-0.2,0.3-0.4,0.5-0.8,0.6c-0.3,0.1-0.4,0.3-0.7,0.8l-0.1,0.1c0.2,0.4,0.3,0.9,0.1,1.3
						c-0.1,0.4-0.4,0.8-0.8,1c-0.1,0.1-0.2,0.2-0.4,0.2c-0.4,0.3-0.8,0.6-1.5,0.7c-0.1,0-0.3,0.1-0.4,0.3l-0.4,0.6
						c-0.3,0.5-0.6,0.9-0.9,1.3c-0.2,0.3-0.2,0.4-0.2,0.5c-0.1,0.7-0.6,1.2-1.2,1.2c0,0,0,0-0.1,0h-0.1c-0.3,0-0.6-0.1-0.8-0.4
						c-0.1-0.1-0.1-0.1-0.1-0.2c0,0,0,0,0,0c-0.1,0.1-0.3,0.3-0.6,0.3c-0.3,0-0.4-0.1-0.6-0.2c-0.1,0-0.1,0-0.2,0h-0.4l-0.3-0.5
						c0,0,0-0.1-0.1-0.1c-0.2,0.6-0.6,1-1,1.3c-0.1,0.1-0.3,0.3-0.4,0.4c-0.4,0.5-0.9,0.9-1.5,1.1c-0.1,0-0.2,0.1-0.2,0.1
						c0.1,0.6-0.3,1.1-0.8,1.3c-0.8,0.3-1.2,1-1.7,2c-0.2,0.4-0.7,0.8-1.6,1.1c0,0.1,0.1,0.2,0.1,0.3c0,0.3-0.1,0.6-0.4,0.8
						c-0.1,0.1-0.2,0.2-0.3,0.3c-0.4,0.3-0.9,0.7-1.6,0.7c-0.4,0-0.7,0.5-1,0.9l-0.1,0.1c-0.3,0.4-0.6,0.8-1.1,1.1
						c-0.1,0.2-0.1,0.5-0.1,0.6l0,0.2c-0.1,0.9-0.9,1.1-1.3,1.3c-0.1,0-0.1,0.1-0.2,0.1c0,0.1,0,0.1,0,0.2c0.3,0.4,0.4,0.8,0.3,1.2
						c-0.1,0.4-0.3,0.8-0.7,1c-0.1,0.1-0.2,0.1-0.3,0.4c-0.2,0.7-0.8,1-1.2,1.1c0,0,0,0,0,0c0.2,0.7-0.4,1.1-0.6,1.3l-0.1,0.2
						c-0.1,0.2-0.2,0.4-0.4,0.5c-0.5,0.5-1,0.7-1.3,0.7c-0.4,0-1-0.2-1.5-1c0,0,0,0,0,0c0,0-0.1,0-0.1-0.1c-0.2-0.1-0.4-0.2-0.5-0.4
						c0.1,0.2,0.3,0.4,0.3,0.7c0.1,0.8-0.5,1.2-0.9,1.3l0,0c0,0,0,0-0.1,0c0,0.1,0,0.3,0,0.4c-0.1,0.5-0.4,0.9-0.9,1.2
						c-0.5,0.3-1.1,0.4-1.6,0.5c0,0,0,0-0.1,0h0c-0.1,0-0.2,0-0.3-0.1c-0.2-0.1-0.4-0.2-0.6-0.4c-0.2-0.2-0.3-0.6-0.2-0.9
						c0-0.2,0.1-0.4,0.3-0.5c0,0,0.1-0.1,0.2-0.1c0.2-0.1,0.3-0.2,0.5-0.4c0.4-0.3,0.8-0.6,1.3-0.8c0.1,0,0.2,0,0.3-0.1
						c0-0.5,0.3-1,0.9-1.1c0.1,0,0.3-0.1,0.3-0.1c0.3,0,0.5,0.1,0.7,0.3c-0.2-0.3-0.3-0.6-0.2-1c0.2-0.6,0.8-0.7,1.1-0.8
						c-0.1-0.3,0-0.7,0.2-1c0.3-0.5,0.7-0.7,1.1-0.8c0.1,0,0.1,0,0.2-0.1c0-0.1,0-0.1,0-0.2c0-0.1,0-0.1,0-0.2
						c0-0.3,0.1-0.9,0.6-1.2c0.3-0.2,0.5-0.4,0.7-0.8c0.1-0.1,0.2-0.2,0.2-0.3c0.1-0.2,0.4-0.4,0.8-0.6c0.1,0,0.1-0.1,0.2-0.1
						c0.2-0.3,0.5-0.5,0.7-0.8c0.2-0.2,0.4-0.4,0.6-0.7c0.1-0.2,0.2-0.3,0.3-0.5c0.2-0.5,0.4-1,1.1-1.4c0,0,0.1-0.1,0.1-0.2
						c0.2-0.7,0.8-1.2,1.3-1.6c0.2-0.2,0.5-0.4,0.6-0.5c1-1.3,2.1-2.8,3.1-4.4c0.2-0.4,0.5-0.7,0.7-1.1c0.4-0.6,0.8-1.1,1.1-1.7
						c0.8-1.4,1.5-2.7,2.3-3.8l0.1-0.2c0.3-0.8,0.9-1.8,1.5-2.4c0,0,0.1-0.1,0.1-0.1c0.2-0.2,0.4-0.6,0.9-0.6h0.2l0.3,0.2
						c0.1,0.1,0.2,0.1,0.2,0.2c0.3-0.4,0.7-0.7,1.1-0.9c-0.3-0.8,0.3-1.5,0.5-1.7c0.1-0.1,0.2-0.2,0.3-0.3c0.3-0.4,0.6-0.8,1.1-1.1
						c0.2-0.1,0.4-0.3,0.8-0.4c-0.2-0.5-0.1-0.9,0.1-1.3c0,0-0.1,0.1-0.1,0.1c-0.1,0.1-0.2,0.1-0.4,0.2c-0.1,0-0.2,0-0.2,0
						c0,0-0.1,0-0.1,0c0,0-0.1,0-0.2,0c-0.1,0-0.4-0.1-0.6-0.3c-0.1-0.2-0.4-0.5-0.3-1c0.4-1.1,0.9-2,1.5-2.7
						c0.2-0.2,0.4-0.3,0.8-0.3c0.1,0,0.2,0,0.2,0c0.5,0.1,0.8,0.5,0.8,0.9c0,0.3-0.1,0.8-0.4,1.3c0,0,0-0.1,0-0.1
						c0.2-0.2,0.3-0.5,0.3-0.7c0.1-0.5,0.5-0.9,0.9-1c0.3-0.1,0.4-0.3,0.7-0.9c0.1-0.3,0.3-0.6,0.6-0.7c-0.1-0.3-0.1-0.6,0-0.9
						c0.1-0.3,0.3-0.5,0.7-0.7c0-0.1,0.1-0.4,0.1-0.4c-0.2-0.1-0.3-0.2-0.4-0.4c-0.1,0.2-0.2,0.4-0.4,0.6c-0.2,0.2-0.5,0.2-0.8,0.2
						c0,0-0.2,0-0.2,0c-0.4-0.1-0.6-0.3-0.8-0.6c-0.1-0.3-0.1-0.7,0-1c0.1-0.3,0.3-0.5,0.4-0.8c0.1-0.2,0.4-0.4,0.9-0.4
						c0.4,0,0.7,0.2,0.8,0.5c0,0,0,0,0-0.1l0.2-0.2l0.4-0.1c0.2,0,0.5,0.1,0.6,0.2c0.3-0.5,0.6-0.9,1.1-1.1c0.6-0.3,0.9-0.7,1-1.2
						c0.1-0.4,0.3-0.7,0.5-1c0.5-0.8,0.7-1.5,0.9-2.4c0.1-0.5,0.3-0.8,0.8-1c0.1,0,0.2-0.1,0.2-0.2c0.1-0.6,0.4-1.1,0.7-1.6
						c0.2-0.4,0.4-0.8,0.5-1.1c0.2-0.8,0.6-1.5,1-2.1c0.5-0.7,0.8-1.3,1-1.9c0.2-0.9,0.6-1.6,1-2.3c0.2-0.3,0.3-0.6,0.5-0.9
						c0.4-0.8,0.6-1.7,0.9-2.5c0.2-0.9,0.5-1.8,0.9-2.7c1.3-2.9,2.1-5.2,2.5-7.5c0-0.1,0-0.2,0.1-0.3c0,0,0,0,0,0
						c-0.2-0.7,0.2-1.3,0.4-1.7c0.1-0.2,0.2-0.4,0.3-0.5c0.2-1.1,0.3-2.1,0.4-3c0-0.6,0-1.2,0.3-1.8c0,0,0-0.1,0-0.1
						c0-0.2,0-0.4,0.1-0.7c0.2-0.7,0.2-1.4,0.2-2.2c0-0.4,0-0.9,0-1.3c0.1-0.9,0.4-1.9,0.8-2.6c0,0,0-0.1,0-0.1c0-0.1,0-0.2,0-0.3
						c0-1.2,0.1-2.4,0.3-3.7c0-0.2,0.1-0.9,0.7-1.2c-0.2-0.1-0.3-0.4-0.4-0.7c-0.1-0.4-0.2-1-0.2-0.7c0,0.4-0.4,0.7-0.6,0.8
						c-0.2,0.1-0.4,0.1-0.5,0.1h-0.2l-0.3-0.1c0,0-0.6-0.3-0.7-0.9l-0.1-0.3l0.2-0.3c0.1-0.3-0.2-1.8-0.4-2.2
						c-0.5-0.2-0.5-0.6-0.5-0.9c0-0.5,0.4-0.9,0.8-1c0-0.2,0-0.3-0.1-0.4c-0.1-0.1-0.1-0.3-0.2-0.7c0-0.2,0-0.4,0-0.6
						c0,0,0-0.1,0-0.1c-0.1,0-0.1-0.1-0.2-0.2c-0.2-0.2-0.2-0.5-0.1-0.9c0.1-0.3,0.3-0.6,0.7-0.7c-0.1-0.2-0.1-0.4-0.1-0.7
						c0-0.3,0-0.3-0.1-0.4c-0.5-0.5-0.9-1.4-0.5-2c0.3-0.5,0.3-0.6,0.2-0.8c-0.4-0.6-0.2-1.3,0.1-1.8c0.4-0.6,0.4-1.3,0.4-2.2
						c0-0.2,0-0.2,0-0.3c0-0.1,0-0.2,0-0.3c-0.3-0.1-0.4-0.4-0.4-0.8c0-0.3,0.2-0.5,0.4-0.7c0-0.4,0-0.7,0.1-1
						c0.1-0.5,0.1-0.9,0-1.3c-0.1-0.3-0.1-0.6,0-0.8c0.1-0.7,0-1.5-0.2-2.3c-0.1-0.4-0.1-0.8-0.2-1.1c0-0.3-0.1-0.6-0.1-0.9
						c-0.1-0.7-0.2-1.3-0.1-2.1c0-0.9,0.3-1.8,0.3-2.7l-0.1-0.9c0-0.2,0-0.4-0.1-0.5c-0.2-0.6-0.3-1.6-0.4-2.3
						c-0.2-0.9-0.5-1.8-0.9-2.6c-0.1-0.2-0.1-0.3-0.2-0.5c0-0.1,0-0.1-0.1-0.2l-0.2-0.1c-0.3,0.4,0,0.7,0.2,1
						c0.4,1.1,0.6,2.3,0.8,3.4c0.1,0.4,0.1,0.7,0,1.1c0,0.1-0.1,0.2-0.2,0.2c-0.1,0-0.3,0-0.3-0.2c-0.1-0.3-0.1-0.5-0.1-0.8
						c0-0.3-0.1-0.6-0.3-0.9c0-0.1-0.2-0.1-0.2-0.1c0,0-0.1,0-0.1,0.1c0,0.1-0.1,0.2-0.1,0.3c0,1.2,0.2,2.4,0,3.6
						c-0.1,0.2,0.1,0.5,0.2,0.8c0.1,0.4,0.1,0.7,0,1.1c0,0.1-0.1,0.1-0.2,0.1c-0.1,0-0.2-0.1-0.2-0.2c-0.1-0.2-0.2-0.4-0.2-0.7
						c0-1-0.1-2.1-0.1-3.1c0-0.2-0.3-0.4-0.5-0.4c-0.1,0-0.2,0.2-0.2,0.3c0,0.2,0.2,2,0.2,2.2c-0.1,1.2,0.7,5.8,0.7,7.7
						c0,0.9-0.3,1.8-0.3,2.7c0,0.8,0.4,1.5,0.3,2.3c-0.1,0.8,0.2,1.8,0.1,2.6c-0.1,0.7,0,1.5-0.4,2.2c-0.1,0.1-0.1,0.4-0.1,0.5
						c-0.1,1.5,0.4,3.6,0.1,5.1c-0.5,2.2-0.8,5.3-1.3,7.8c-0.6,2.8-1.6,5.5-2,8.3c0,0.1-0.1,0.3-0.1,0.4c-0.5,0.9-0.6,2-0.8,3
						c-0.1,0.7-0.3,1.3-0.6,1.9c-0.4,0.6-0.3,1.4-0.9,2c-0.1,0-0.1,0.2,0,0.3c0.1,1-0.5,1.9-0.7,2.9c0,0.1-0.5,0.8-0.6,0.9
						c-0.1,0.1-0.6-0.6-0.7-0.6c-0.2,0-0.2-0.2-0.1-0.3c0.3-0.5,0.4-1,0.4-1.6c0-0.2,0.1-0.4,0.1-0.7c0.7-2.2,1.3-4.4,2-6.6
						c0.2-0.8,0.6-1.5,0.8-2.3c0.6-2.2,1.1-4.5,1.7-6.7c0.1-0.6,0.3-1.1,0.4-1.7c0.3-1.8,0.3-5.1,0.6-6.9c0.2-1-0.1-2,0-3
						c0.2-1.8,0.5-3.5,0.8-5.2c0.1-0.7-0.2-1.4-0.2-2.1c0-0.1-0.1-0.2-0.1-0.2c-0.1,0-0.2,0.1-0.2,0.1c-0.2,1.1-0.5,2.3-0.6,3.5
						c-0.1,0.9-0.1,1.7-0.3,2.5c-0.2,1-0.2,2-0.4,2.9c-0.1,0.4-0.3,0.5-0.7,0.4c-0.1,0-0.1-0.1-0.2-0.2c-0.3-0.1-0.4,0-0.4,0.3
						c0,0.4,0.1,0.7,0.6,0.6c0.4,0,0.5,0.1,0.5,0.4c0,0.8-0.2,1.6-0.4,2.4c-0.1,0.3,0.3,2.1-0.1,2.2c-0.6,0.2-0.3,0.8-0.3,1.3
						c-0.1,1.3-0.2,2.6-0.9,3.8c0,0.1-0.1,0.2,0,0.3c0,0.9-0.4,1.7-0.4,2.6c0,0.5-0.2,0.9-0.5,1.2c-0.3,0.4-0.4,0.8-0.4,1.2
						c0,0.4-0.2,1-0.1,1.3c0,0.3,0.1,0.7-0.1,0.9c-0.4,0.4-0.6,1-0.5,1.6c0,0.2-0.1,0.2-0.2,0.3c-0.2,0-0.4,0.1-0.5-0.1
						c-0.1-0.2-0.1-0.3-0.2-0.5c-0.3-0.7,0.2-1.3,0.4-1.9c0.1-0.4,0.4-1,0.5-1.2c0.3-0.5,0.4-1.1,0.3-1.7c-0.1-0.4,0.1-0.8,0.5-1.1
						c0.1-0.1,0-0.3-0.2-0.3c-0.1,0-0.3,0-0.4,0c-0.1,0-0.1,0-0.2,0c-0.6,0.7-1,1.4-1,2.4c0,0.6-1.5,3.6-1.1,4.5
						c0.1,0.2-0.3,1.5-0.3,1.7c0,0.6,0.5,1,0.6,0.8c0.2-0.3,0.4-0.8,0.7-1.6c0-0.1,0.1-0.1,0.2-0.2c0.1,0,0.2,0,0.2,0
						c0.1,0.2,0.2,0.5,0.3,0.7c0,0.3-0.1,0.4-0.2,0.6c0,0-0.3,0.4-0.3,0.4c-0.6,0.8-0.3,1.7-0.4,2.7c0,0.3,0.1,0.4-0.2,0.7
						c-0.4,0.4-0.2,0.9-0.4,1.4c-0.1,0.5-0.3,0.7-0.3,1.3c0,0.1,0,0.2,0,0.3c0,0.2,0,0.4-0.1,0.5c-0.4,0.6-0.6,1.1-0.4,1.8
						c0.1,0.2-0.1,0.5-0.4,0.6c-0.2,0-0.3-0.2-0.2-0.6c0-0.1,0.1-0.2,0.1-0.3c0-0.1-0.1-0.2-0.2-0.3c0,0-0.2,0-0.2,0
						c-0.4,0.4-0.8,0.8-0.8,1.4c0,0.2-0.6,1.3-0.6,1.7c0,0.3,0,0.5-0.1,0.6c-0.6,0.9-0.9,1.9-1.3,2.8c-0.3,0.6-0.5,1.3-0.5,2
						c0,0.3-0.1,0.4-0.2,0.6c-0.5,0.6-0.6,1.3-0.6,2c0,0.2,0.1,0.5,0,0.7c-0.4,0.7-1.8,4.9-2.2,5.6c-0.3,0.6-2.3,5.7-2.6,6.2
						c-0.2,0.3-0.2,0.6,0,0.9c0.2,0.3-0.1,0.8-0.3,1c-0.1,0.1-0.3,0.2-0.5,0.3c-0.5,0.3-0.8,1.5-0.9,2c-0.2,1.1-0.8,2.4-1.1,2.6
						c-0.2,0.2-0.5,1-0.5,1c-0.4,0.2-1.3,1.7-1.5,1.8c-0.6,0.8-1.2,2.7-1.5,2.7c-0.3,0.1-0.3,0.4-0.5,0.6c-0.4,0.5-0.8,0.9-1,1.5
						c-0.3,0.7-0.8,1.4-1.4,2c-0.3,0.4-0.6,0.6-0.7,1.1c-0.1,0.2-0.2,0.5-0.4,0.7c0-0.2-0.4,0.3-0.4,0.5c0,0,0,0,0,0
						c-0.3,0.4-0.6,0.9-0.9,1.3c-0.1,0.1-0.9,1.2-0.8,1.2c0,0,0,0,0,0c0,0.1-0.1,0.1-0.1,0.2c-0.4,0.6-0.9,1-1.3,1.6
						c-0.8,1.1-1.5,2.3-2.5,3.2c-0.2,0.2-0.5,0.5-0.5,0.8c-0.2,0.6-0.6,0.9-1.1,1.2c-0.4,0.3-0.8,0.5-0.8,1
						c-0.1,0.6-0.9,0.4-1.1,0.9c-0.1,0.2-0.2,0.3-0.3,0.5c-0.3,0.4-0.6,0.8-0.9,1.2c-0.5,0.4-0.8,1-1.2,1.5
						c-0.3,0.4-0.5,0.8-0.9,1.2c-0.5,0.4-0.9,1-1.4,1.4c-0.7,0.6-1.3,1.4-2.1,1.9c-0.7,0.4-1.3,1-1.8,1.6c-0.8,1-1.5,2.1-2.7,2.8
						c-0.1,0.1-0.2,0.2-0.3,0.3c-0.3,0.5-0.8,0.9-1.2,1.2c-1,0.8-1.9,1.7-2.9,2.4c-0.3,0.2-0.6,0.4-0.8,0.7
						c-0.6,0.5-1.1,1.1-1.7,1.6c-0.6,0.5-1.2,1-1.7,1.7c-0.1,0.2-0.3,0.3-0.5,0.4c-0.5,0.4-1.2,0.5-1.6,0.9
						c-0.5,0.4-0.9,0.9-1.4,1.2c-0.7,0.4-1.4,0.8-2,1.4c-1,1-2.2,1.7-3.4,2.5c-1,0.7-2,1.3-3,2c-0.1,0-0.3,0-0.6,0
						c0,0.1,0,0.3,0,0.4c-0.1,0.1-0.3,0.2-0.4,0.3c-0.8-0.1-0.8-0.1-0.8,0.3c0,0.1,0,0.1,0,0.2c-1.4,0.8-2.7,1.9-4.3,2.4
						c-0.5,0.1-0.8,0.5-1.3,0.8c-1.5,0.8-3.1,1.5-4.5,2.4c-0.9,0.6-1.9,1.1-3,1.2c-0.3,0.1-0.6,0.2-0.7,0.5
						c-0.2,0.5-0.4,0.5-0.8,0.2c-0.1-0.1-0.2-0.1-0.4-0.1c-0.5,0.2-1,0.3-1.5,0.6c-1,0.6-2,0.9-3.1,1.4c-0.6,0.3-1.2,0.6-1.7,1.1
						c-0.3,0.3-0.7,0.5-1.1,0.7c-0.5,0.2-1,0.4-1.4,0.7c-0.4,0.3-0.7,0.4-1.1,0.4c-0.4,0-0.7,0.2-0.8,0.6c-0.1,0.3-0.4,0.5-0.6,0.5
						c-0.9,0-1.5,0.5-2.3,0.8c-0.5,0.2-1,0.5-1.5,0.2c-0.2-0.1-0.3,0-0.5,0.2c-0.4,0.4-0.7,0.8-1.4,0.9c-0.4,0-3.9,1.6-4.2,1.6
						c-0.7,0-1.3,0.3-1.9,0.6c-0.7,0.3-1.4,1.2-1.8,0.8c-0.2-0.2-0.4-0.3-0.7-0.3c-0.5,0-0.9,0.1-1.3,0.3c-0.4,0.2-0.7,0.4-1.1,0.4
						c-0.5-0.1-1.3,0.4-1.4,0.5c-0.2,0.1-1.4,0.9-1.9,1c-0.4,0.1-2.8,0.9-3.3,0.5c-0.1-0.1-0.3-0.1-0.4-0.1c-0.7,0.1-1.3,0.6-2,0.2
						c-0.1-0.1-0.3,0.1-0.5,0.2c-0.4,0.2-1.3-0.1-1.4-0.1c-1.4,0.3-2.8,0.5-4.1,0.8c-1.7,0.4-3.4,0.6-5.1,0.5c-2.1,0-4.3,0-6.4-0.1
						c-2.1,0-4.3-0.3-6.5-0.6c-2.9-0.4-8.3-1.6-11.2-2.2c-0.1,0-0.3,0.2-0.3,0.3c0,0.1,0.4,0.4,0.5,0.5c0.7,0.3,3.7,1.4,4.3,1.7
						c0.3,0.1,0.4,0.2,0.3,0.5c-0.8,0.3-2.6-0.2-3.1-0.3c-0.1,0-0.2,0.1-0.2,0.1c0,0.1,0.9,0.6,0.9,0.7c0.5,0.1,2.1,1.5,2.7,1.6
						c0,0,0.4,0.2,0.7,0.2c0.5,0.2,1.2,0.2,1.7,0.4c0.9,0.4,1.8,0.9,2.7,1.2c0.6,0.2,1.3,0.4,1.9,0.7c1.1,0.5,2.1,1,3.2,1.3
						c1,0.3,1.9,0.7,2.8,0.9c2.3,0.4,4.7,1.7,7,1.8c1.1,0.4,1.6,0.4,2.8,0.9c0.1,0.1,0.7,0.2,0.9,0.2c2.6,0.2,5,0.6,7.5,1.1
						c2.1,0.4,4.6,0.4,6.7,0.6c2.2,0.3,4,0.3,6.2,0.7c2.1,0.4,5.4-0.1,7.6,0.3c2.3,0.4,4.6-0.1,6.9,0.1c0.2,0,0.4,0,0.5,0
						c1.3,0,2.5-0.1,3.8-0.1c0.4,0,0.9,0,1.4,0.1c2.3,0.3,4.6-1.1,6.9-1.1c0.2,0,0.5,0,0.7-0.1c0.7-0.3,1.4-0.3,2.1-0.4
						c1.9-0.1,3.1-0.9,5-1c3.1-0.2,4.7-1.1,7.7-1.9c0.8-0.2,1.7-0.4,2.5-0.6c1.5-0.3,2.9-0.6,4.4-0.9c1.5-0.4,3-0.8,4.4-1.3
						c1.5-0.5,3-1.2,4.5-1.9c0.5-0.2,0.9-0.3,1.4-0.5c1.8-0.7,3.5-1.5,5.3-2.2c1.9-0.7,3.7-1.4,5.5-2.4c0.3-0.2,0.7-0.4,1.1-0.4
						c1-0.2,2-0.7,2.8-1.3c0.5-0.4,1-0.7,1.6-0.9c0.7-0.3,1.3-0.6,1.9-1c0.2-0.1,0.5-0.3,0.6-0.5c0.3-0.4,0.6-0.7,1.1-0.6
						c0.3,0,0.4-0.1,0.5-0.4c0-0.1,0.1-0.3,0.2-0.3c0.7-0.3,1.2-0.9,1.9-1.3c1.5-0.8,4.1-2.2,5.5-3.2c2.5-1.9,4.1-2.7,6.5-4.6
						c1.3-1.1,2.7-2,3.9-3.1c0.7-0.6,1.5-1.2,2.2-1.8c0.3-0.3,0.5-0.5,0.8-0.7c0.2-0.1,0.5-0.2,0.7-0.4c1.5-1.7,3.4-2.9,4.9-4.7
						c0.6-0.7,1.4-1.3,2.1-1.9c0.6-0.6,1.2-1.2,1.7-1.9c1.1-1.3,2.5-2.5,3.5-3.9c0.3-0.3,0.5-0.8,0.8-1.1c1-0.9,2.4-2.3,3.2-3.4
						c1-1.3,1.7-2.1,2.6-3.5c0.7-1,1.6-1.9,1.9-3.1c0-0.1,0.1-0.3,0.2-0.3c0.7-0.5,1-1.3,1.4-2c0.5-1.1,1.9-1.8,2.2-3
						c0.9-1,1.3-2.2,2.1-3.3c0.6-0.8,0.7-1.2,1.2-2c0.5-0.8,1.3-1.4,1.7-2.2c0.5-1,1.1-2.5,1.8-3.5c0.6-0.9,0.8-1.9,1.6-2.6
						c0.1-0.1,0.1-0.3,0.1-0.4c0-0.6,0.4-1.1,0.6-1.6c0.6-1.2,0.9-2.4,1.6-3.6c0.4-0.7,0.8-1.5,1.1-2.3c0.1-0.2,0.2-0.4,0.2-0.6
						c0-0.2,0-0.4,0.1-0.7c0.8-1.5,1.8-3.1,2.4-4.7c0.3-0.7,0.8-2.4,0.8-2.5c0.6-1.2,1.1-2.4,1.5-3.6c0.2-0.5-0.3-1.1-0.3-1.7
						c0-0.2,0.1-0.5,0.2-0.8c0.2-0.4,0.8-2.3,0.8-2.5c0.1-0.8,0.5-0.9,0.2-1.8c-0.3-0.8-0.3-1.7,0.6-2.2c0.2-0.1,0.8-1,0.9-1.4
						c0.4-1.3,0.2-2.2,0.6-3.6c0.2-0.6,0.3-1.1,0.1-1.7c-0.1-0.2,0-0.4,0.1-0.7c0.6-1.5-0.3-3-0.2-4.6c0.1-1.4-0.1-2.9,0.4-4.3
						c0.1-0.2,0-0.4,0-0.7c0-0.4,0-0.8,0-1.2c0.1-1.7,0.1-3.4,0.2-5c0.1-1.3,0.7-2.5,0.7-3.8c0-1.6,0-3.3-0.1-4.9
						c-0.1-1-0.2-2.1,0.2-3.1C491.8,250.4,491.9,250.1,491.6,249.9z M449,283.1c0.2,0.3,0.2,0.7,0.1,0.9c0,0,0,0.1,0,0.1
						c0,0,0,0,0,0c0.1-0.1,0.1-0.1,0.3-0.2c0,0-0.1-0.1-0.1-0.1c-0.3-0.7-0.2-1.3,0.2-1.9c0.3-0.4,0.6-0.8,0.8-1.2
						c0-0.1,0.1-0.1,0.1-0.2c-0.4-1.4,0.1-2.6,0.7-3.5c0.1-0.1,0.2-0.3,0.3-0.4l0.1-0.1c0,0,0-0.1,0-0.1c-0.3-0.1-0.5-0.4-0.7-0.7
						c-0.4-0.9-0.3-1.8,0.1-2.4c0.3-0.4,0.4-0.6,0.4-0.8c0-0.7,0.6-1,0.9-1.1c0,0,0,0,0,0c-0.3-0.2-0.4-0.5-0.4-0.8
						c0-0.1,0-0.2,0-0.4c-0.1-0.4-0.1-0.9,0.2-1.5c0.1-0.2,0.2-0.5,0.3-0.7c0-0.2,0-0.4,0-0.6c0-0.5,0-1.1,0.5-1.8
						c0.7-1,1-1.8,0.9-2.7c-0.1-0.6,0.2-1.2,0.5-1.7c0.1-0.2,0.2-0.4,0.3-0.6c0.1-0.4,0.2-0.8,0.3-1.1c0.1-0.7,0.8-1,1.5-1
						c0.2,0,0.3,0,0.4,0.1c0.6,0.2,0.9,0.7,0.8,1.4c-0.1,0.9-0.2,1.7-0.4,2.6c0,0.3-0.1,0.6-0.1,0.9c-0.1,0.9-0.3,1.9-0.3,2.9
						c0,0.4-0.1,0.8-0.2,1.1c-0.1,0.2-0.1,0.3-0.1,0.5c-0.1,1-0.9,1.2-1.2,1.2c-0.2,0.5-0.4,0.9-0.7,1.3c-0.1,0.2-0.2,0.3-0.3,0.4
						c0.2-0.1,0.3-0.1,0.5-0.1c0.3,0,0.6,0.1,0.9,0.3c0.3,0.2,0.5,0.4,0.5,0.7c0.1,0.3,0,0.5-0.2,0.8c-0.2,0.3-0.4,0.4-0.6,0.4
						c-0.2,0.2-0.5,0.4-0.9,0.4c-0.1,0-0.3,0-0.4-0.1c0,0,0,0,0,0c0,0,0,0,0.1,0c0.5,0,0.8,0.2,1.1,0.4c0.2,0.2,0.4,0.5,0.3,1.1
						l0,0.3c0,0.2-0.1,0.4-0.1,0.6c-0.2,0.4-0.5,0.6-0.8,0.7c0,0.1,0,0.1,0,0.2c0.1,0.4,0.4,1.2-0.4,1.8c0,0,0,0,0,0
						c0,0,0,0.1,0,0.2c-0.1,0.3-0.3,0.7-0.7,0.9c0.1,0.8-0.3,1.4-0.7,1.7c0.1,1.2-0.5,2.2-1,2.9c-0.2,0.3-0.5,0.5-0.8,0.6
						c0.1,0.2,0.1,0.3,0.1,0.5c0,0.3-0.1,0.6-0.2,0.9c-0.1,0.4-0.4,0.6-0.8,0.7c-0.1,0-0.1,0-0.2,0c-0.2,0-0.5-0.1-0.6-0.2l-0.1-0.1
						c-0.1-0.1-0.3-0.3-0.4-0.6c-0.1-0.2-0.1-0.3-0.1-0.5c-0.2,0.1-0.5,0.2-0.6,0.2c0,0-0.3,0-0.3,0c-0.3,0-0.6-0.1-0.8-0.4
						c-0.3-0.3-0.2-0.7-0.2-0.8c0-0.3,0.1-0.5,0.1-0.7c0.2-0.6,0.7-0.9,1.2-0.9C448.6,282.6,448.9,282.9,449,283.1z M445.9,274.8
						c0-0.3,0-0.5,0.1-0.7c0.1-0.5,0.6-0.8,1.1-0.8c0.6,0,1,0.4,1.1,0.9c0.1,0.5-0.1,0.9-0.4,1.3c0,0.3,0,0.7-0.1,1
						c-0.2,0.5-0.6,0.9-1.2,0.9h0c-0.3,0-0.6-0.2-0.9-0.4c-0.2-0.3-0.3-0.7-0.3-1.1C445.4,275.5,445.6,275.1,445.9,274.8z
						 M438.5,294.7l0.1-0.2c0.2-0.4,0.2-0.5,0.2-0.6c-0.2-0.6,0-1.3,0.6-1.6c0.3-0.1,0.4-0.4,0.6-1l0.1-0.4c0.8-1.9,1.5-3.4,2.1-4.9
						c0.5-1,0.8-1.8,1.1-2.6c0.3-0.8,0.6-1.7,1-2.4c0.1-0.3,0.2-0.5,0.3-0.8c0.1-0.2,0.2-0.5,0.7-0.7c0.2-0.1,0.3-0.1,0.5-0.1
						c0.4,0,0.7,0.2,1,0.5c0,0,0.1,0.1,0.1,0.1c0.1,0.3,0.1,0.6,0,0.9c-0.1,0.2-0.2,0.4-0.2,0.7c-0.1,0.3-0.1,0.6-0.3,1
						c-0.1,0.3-0.2,0.5-0.3,0.8l-0.4,1.2c-0.2,0.7-0.5,1.5-0.9,2.2c-0.3,0.5-0.5,1-0.5,1.6c0,0.6-0.3,1-0.5,1.4
						c-0.1,0.2-0.2,0.3-0.3,0.5c-0.3,0.5-0.5,0.8-0.6,1.1c0,0,0,0.1,0,0.2c0,0.1-0.1,0.2-0.1,0.3c-0.4,0.5-0.6,1-0.8,1.6
						c-0.2,0.5-0.3,1-0.6,1.4l-0.1,0.1c-0.2,0.3-0.4,0.7-0.6,1c0,0.1-0.1,0.1-0.1,0.2c-0.1,0.1-0.4,0.7-1.2,0.7c0,0-0.2,0-0.2,0
						c-0.3,0-0.6-0.2-0.7-0.5C438.1,296,438.1,295.4,438.5,294.7z M435.9,300.3c0.1-0.1,0.3-0.2,0.4-0.2c0.1-0.5,0.4-0.9,0.7-1.3
						c0,0,0.4-0.5,1-0.5c0,0,0.1,0,0.2,0c0.1,0,0.1,0,0.2,0c0.2,0.1,0.9,0.4,0.6,1.5c-0.2,0.7-0.6,1.2-1.1,1.6
						c-0.1,0.5-0.3,0.9-0.7,1.2c-0.2,0.1-0.4,0.2-0.6,0.2c-0.4,0-0.8-0.2-1-0.7C435.3,301.4,435.5,300.8,435.9,300.3z M311.3,382.9
						l-0.3,0.2c-0.2,0.1-0.2,0.1-0.4,0.2c-0.1,0-0.2,0.1-0.3,0.1c-0.1,0-0.2,0-0.2,0c-0.1,0-0.1,0-0.2,0l-0.1,0
						c-0.1,0-0.3-0.1-0.5-0.1c-0.3-0.1-0.6-0.4-0.7-0.6c0,0,0,0,0,0c0,0-0.1,0-0.1,0c0,0-0.2,0-0.2,0c0,0-0.1,0-0.1,0
						c-0.2-0.1-0.4-0.1-0.6-0.1c-0.5-0.1-1-0.1-1.5-0.4c-0.2-0.1-0.4-0.1-0.7-0.1c-0.3,0-0.5-0.1-0.7-0.1c-0.4-0.1-0.8-0.5-0.9-0.9
						c-0.1-0.3,0-0.7,0.3-0.9c0.2-0.2,0.4-0.3,0.7-0.4c0.1,0,0.2-0.1,0.4-0.1c0,0,0.4,0,0.4,0c0.2,0,0.4,0.1,0.5,0.1
						c0.8,0.1,2,0.3,3,1c0.2,0.1,0.3,0.3,0.4,0.5c0,0,0.1,0,0.1,0c0.1,0,0.2,0,0.2,0c0.3,0,0.5,0,0.8,0.1c0.3,0.1,0.5,0.3,0.7,0.4
						l0.2,0.2c0.2,0.2,0.3,0.4,0.2,0.6C311.7,382.6,311.5,382.8,311.3,382.9z M325.1,388c-0.3,0.1-0.6,0.2-0.9,0.2c0,0-0.1,0-0.2,0
						c0,0-0.1,0-0.1,0c-0.4-0.1-0.9-0.2-1.3-0.2l-0.1,0c-1.2-0.2-2.4-0.4-3.6-1.1c-0.2-0.1-0.4-0.1-0.7-0.2c-0.2,0-0.3-0.1-0.4-0.1
						c-1-0.3-1-0.9-1-1.3c0,0,0,0,0-0.1c-0.1,0.1-0.2,0.2-0.4,0.2c-0.4,0.2-0.8,0.2-1.2,0.2h-0.1c-0.3,0-0.6-0.2-0.7-0.3
						c0,0-0.2,0-0.3,0c-0.6,0-1.1-0.4-1.2-1c-0.1-0.5,0.1-0.9,0.5-1.1c0.2-0.1,0.4-0.2,0.6-0.2c0.3,0,0.6,0.1,0.8,0.2
						c0.2-0.2,0.5-0.2,0.8-0.3c0.1,0,0.3,0,0.5,0c0.4,0,0.7,0.1,1,0.3c0.2,0.2,0.3,0.5,0.3,0.7c0,0.2,0,0.3-0.1,0.4
						c0.2-0.2,0.5-0.3,0.7-0.3c0.4,0,0.7,0.1,1,0.1l0.7,0.1c-0.1,0-0.1,0-0.2-0.1c-0.4-0.2-0.6-0.5-0.6-0.8c0-0.2,0-0.8,0.5-1.1
						c0.5-0.3,1.2-0.7,2-0.7c0.1,0,0.2,0,0.3,0c0.3,0,0.6,0.2,0.7,0.3l0.2,0.1c0.2,0.1,0.3,0.3,0.3,0.4c0,0.2,0,0.4-0.1,0.5
						l-0.1,0.1c-0.1,0.2-0.3,0.5-0.6,0.7c-0.6,0.4-1.2,0.5-1.8,0.6h0.1c0.4,0,0.7,0.1,1.1,0.1c0.8,0.1,1.9,0.3,2.9,1.1c0,0,0,0,0,0
						c0,0,0.1,0,0.1,0c0.2,0,0.3,0.1,0.5,0.1c0.5,0.2,0.8,0.7,0.7,1.2C325.9,387.4,325.5,387.8,325.1,388z M383.5,359.7
						c-0.3,0.4-0.7,0.5-1,0.6c-0.2,0.4-0.6,0.6-0.7,0.7c-0.5,0.3-0.8,0.4-1.2,0.5l-0.4,0.2c-0.1,0.1-0.3,0.1-0.5,0.1
						c-0.1,0-0.1,0-0.2,0c0,0.1-0.1,0.3-0.2,0.4c-0.4,0.4-0.9,0.7-1.5,1c-0.1,0-0.3,0.1-0.4,0.1c-0.3,0-0.6-0.1-0.8-0.4
						c-0.2-0.2-0.3-0.6-0.3-0.9c0.1-0.3,0.3-0.6,0.6-0.8c0.4-0.2,0.8-0.4,1.2-0.6l0.3-0.1c0.1,0,0.2,0,0.2,0c0.1,0,0.1,0,0.2,0
						c0-0.1,0.1-0.2,0.2-0.3c0,0,0,0,0,0c0.6-0.8,1.3-1.3,2.2-1.3c0.3-0.5,0.8-0.8,1.3-0.8c0.2,0,0.5,0.1,0.7,0.2
						c0.3,0.1,0.5,0.4,0.5,0.7C383.9,359.1,383.8,359.4,383.5,359.7z M420.4,324c0.1-0.5,0.5-0.9,1.1-0.9c0,0,0.1,0,0.2,0
						c0-0.1,0.1-0.2,0.1-0.2c0.1-0.1,0.1-0.2,0.1-0.3c0.2-0.4,0.4-1,0.9-1.3c0.1-0.1,0.2-0.1,0.3-0.1c0,0,0,0,0,0c0.6,0,1,0.3,1,0.7
						c0,0.1,0.1,0.5-0.1,0.9c0,0-0.1,0.1-0.1,0.2c-0.1,0.3-0.3,0.8-0.8,1.2c-0.1,0.8-0.7,1.3-1.1,1.6l-0.2,0.2
						c-0.1,0.1-0.3,0.2-0.4,0.2c0,0-0.1,0-0.1,0c-0.4,0-1-0.3-1-0.9C420.3,324.7,420.4,324.3,420.4,324z M406.7,344.3
						c-0.1,0.1-0.3,0.3-0.4,0.4c-0.4,0.5-0.9,1-1.7,1.4l-0.1,0.1c0.1,0.3,0.1,0.6-0.1,0.9c-0.1,0.3-0.4,0.5-0.8,0.5
						c-0.1,0-0.3,0-0.6,0h-0.2c-0.3,0-0.3,0.1-0.4,0.2c-0.4,0.9-0.9,1.3-1.8,1.4c0,0,0,0,0,0.1c-0.1,0.1-0.2,0.3-0.3,0.4
						c-0.4,0.4-0.8,0.5-1.1,0.5c0,0-0.1,0-0.1,0c-0.2,0.2-0.5,0.4-0.9,0.4c0,0,0,0,0,0c0,0,0,0-0.1,0c-0.5,0-0.9-0.3-1-0.8
						c-0.1-0.4-0.2-1.2,0.9-1.6c0.7-0.7,1.4-1.3,2-1.9l0.3-0.2c0.5-0.4,1-0.9,1.4-1.3c0.3-0.3,0.7-0.6,1-0.9
						c0.6-0.5,1.3-1.1,1.7-1.7c0.3-0.3,0.6-0.7,0.9-0.9c0.5-0.5,0.8-0.8,1-1.3c0.1-0.3,0.4-0.7,0.9-0.7c0.1,0,0.2,0,0.5-0.4
						c0.1-0.2,0.3-0.4,0.5-0.6c0.3-0.2,0.5-0.5,0.8-0.7c0.8-0.7,1.6-1.4,2.1-2.3c0,0,0.1-0.1,0.1-0.1c0,0,0.1-0.1,0.1-0.1
						c0.3-0.2,0.6-0.5,0.9-0.7c0.3-0.3,0.7-0.6,1.1-0.9c0.1-0.4,0.3-0.7,0.5-1c0.4-0.4,0.7-0.8,0.8-1.3c0.1-0.6,0.6-0.9,1.2-1
						c0.1,0,0.3,0,0.6-0.5c0.3-0.6,0.8-1.1,1.4-1.7c0,0,0.1-0.1,0.1-0.1c0.1-0.2,0.5-0.6,1.1-0.7c0,0,0.1,0,0.1,0
						c0.3,0,0.6,0.1,0.7,0.3c0.3,0.5,0.5,1.1-0.2,1.8c-0.1,0.3-0.5,0.9-0.5,0.9c-0.1,0.2-0.3,0.4-0.4,0.7c-0.1,0.3-0.3,0.7-0.7,0.9
						c-0.3,0.2-0.5,0.5-0.7,0.8c-0.5,1.2-1.5,1.6-2.4,2c0,0.2,0,0.6-0.2,0.9c-0.2,0.2-0.4,0.4-0.7,0.4c0,0,0,0.1,0,0.2
						c-0.1,0.1-0.1,0.2-0.1,0.3c-0.6,1.3-1.6,2.6-2.9,3.8C409.5,341.5,408,343,406.7,344.3z M440.6,333.2c-0.2,0.1-0.3,0.1-0.5,0.1
						c-0.4,0-0.7-0.1-1-0.4c-0.3-0.4-0.5-0.8-0.5-1.4c0-0.9,1-2.3,1.6-2.6c0.3-0.1,0.5-0.2,0.7-0.2c0.5,0,1.3,0.2,1.6,1.7
						C442.6,331.3,441.3,332.9,440.6,333.2z M449.2,320.3c-0.1,0-0.1,0-0.2,0c-0.1,0.6-0.4,1.2-0.9,1.7c-0.4,1-1.2,1.7-1.8,2.3
						c-0.1,0.1-0.3,0.2-0.4,0.3c-0.1,0.6-0.4,1.1-1,1.5c0,0-0.1,0.1-0.1,0.1c0,0.2,0,0.5-0.1,0.7c-0.2,0.3-0.5,0.6-0.8,0.7
						c0,0-0.2,0-0.2,0c0,0-0.1,0-0.2,0c-0.1,0-0.1,0-0.1,0c0,0-0.1,0-0.2,0c0,0-0.2-0.1-0.3-0.1c-0.5-0.2-0.8-0.5-0.8-1
						c-0.1-0.4,0.1-0.8,0.4-1.1c0.2-0.2,0.5-0.3,0.7-0.4c0,0,0,0,0,0c0-0.1,0-0.3,0.1-0.4c0.2-0.4,0.4-0.8,0.8-1.2
						c0-0.3,0.2-0.7,0.6-1c0.5-0.3,0.7-0.8,1-1.5c0.1-0.2,0.2-0.4,0.2-0.5c0.2-0.5,0.6-0.9,0.9-1.3c0.2-0.2,0.5-0.4,0.8-0.5
						c0.1-0.3,0.3-0.5,0.6-0.6c0.2-0.1,0.4-0.1,0.6-0.1c0.3,0,0.6,0.1,0.9,0.3c0.2,0.2,0.5,0.5,0.5,0.9
						C450.1,319.8,449.7,320.3,449.2,320.3z M454.3,313.4c-0.1,0.3-0.2,0.5-0.3,0.6c-0.2,0.3-0.4,0.4-0.4,0.4
						c-0.1,0.1-0.4,0.2-0.6,0.2c0,0-0.1,0-0.1,0c-0.1,0-0.3,0-0.4-0.1c-0.2,0.2-0.5,0.3-0.7,0.3c-0.1,0-0.3,0-0.4-0.1
						c-0.5-0.2-0.8-0.7-0.7-1.3c0.1-0.7,0.3-1.7,1-2.5c0.2-0.3,0.5-0.5,0.8-0.7c0.2-0.2,0.5-0.2,0.6-0.2c0.3,0,0.6,0.1,0.8,0.3
						c0.4,0.4,0.3,0.9,0.2,1.2c0,0.1-0.1,0.3-0.2,0.4c0.1,0.1,0.2,0.2,0.3,0.3C454.6,312.6,454.4,313.1,454.3,313.4z M467.9,250.9
						c0.2,0,0.5,0.1,0.6,0.2c0,0,0.1,0.1,0.1,0.1c0.5,0.7,0.1,4.1-0.2,5.2c-0.1,0.3-0.3,0.5-0.4,0.6c-0.1,0.2-0.3,0.3-0.5,0.3
						c0,0-0.1,0-0.1,0c-0.2,0-0.3-0.1-0.4-0.2l-0.1-0.1c-0.1-0.1-0.3-0.2-0.4-0.5c-0.1-0.2-0.1-0.4-0.1-0.6l0.1-0.7
						c0.1-1.3,0.2-2.7,0.7-3.8C467.2,251.2,467.5,250.9,467.9,250.9z M465.1,225.9c-0.5,0-0.9-0.3-1.1-0.8l-0.2-0.4
						c-0.1-0.4-0.3-0.8-0.4-1.3c-0.1-0.5-0.1-1-0.1-1.5l0-0.4c0-0.4,0.3-0.7,0.4-0.8c0,0,0.1-0.1,0.1-0.1l0,0
						c0.1-0.1,0.3-0.2,0.5-0.2c0.1,0,0.3,0,0.4,0.1l0.1,0.1c0,0,0.3,0.2,0.4,0.4c0,0,0.1,0.1,0.1,0.2c0.1,0.2,0.3,0.5,0.3,0.9
						c0,0.8,0.3,1.5,0.5,2.1c0.1,0.3,0.1,0.7,0,0.9c-0.2,0.3-0.5,0.5-0.8,0.6C465.3,225.9,465.2,225.9,465.1,225.9z M467.2,258.2
						C467.2,258.2,467.2,258.2,467.2,258.2c0.2,0,0.4,0,0.5,0.1c0,0,0.1,0.1,0.2,0.1c0.2,0.1,0.6,0.4,0.6,0.9c0,0.7-0.3,1.3-1.1,1.6
						c-0.1,0-0.1,0-0.2,0.1c0,0-0.1,0-0.2,0c-0.6,0-1.1-0.7-1.1-1.2C465.7,258.7,466.5,258.3,467.2,258.2z M466.1,268.2
						c0-0.1,0-0.4,0-0.4c0-0.3,0.1-0.6,0.1-0.9c0.1-0.7,0.3-1.5,0.5-2.3c0.1-0.3,0.2-0.6,0.3-0.8c0.3-0.4,0.7-0.6,1-0.6
						c0,0,0.2,0,0.2,0c0.5,0.2,0.9,0.6,0.8,1.2l-0.1,0.4c-0.1,0.6-0.2,1.1-0.3,1.7l-0.1,0.3c-0.2,0.6-0.3,1.1-0.4,1.7
						c-0.1,0.4-0.5,1-1,1c0,0-0.1,0-0.1,0h0c-0.4,0-1-0.3-1-1.1C466.1,268.4,466.1,268.3,466.1,268.2z M467.3,285.1c0,0-0.2,0-0.2,0
						c-0.5-0.1-0.9-0.6-0.9-1.1c0.1-0.8,0.4-1.5,0.7-2.1c0.3-0.4,0.6-0.6,0.9-0.6c0.4,0.1,0.6,0.2,0.8,0.4c0.2,0.2,0.2,0.5,0.2,0.9
						c0,0,0,0.1,0,0.1c0,0.7-0.2,1.4-0.8,2C467.9,284.9,467.6,285.1,467.3,285.1z M473.3,321.8c0,0.2,0,0.4,0,0.5
						c0,0.1,0,0.3-0.1,0.5c-0.5,0.9-1.1,1.8-1.7,2.8l-0.4,0.6c-0.3,0.5-0.9,0.8-1.6,0.8c-0.2,0-0.4,0-0.5-0.1
						c-0.4-0.2-0.6-0.5-0.7-0.8c-0.1-0.4,0-0.8,0.1-1.1c0.9-1.4,1.6-2.4,2.3-3.4c0.7-1,1.1-1.3,1.6-1.3c0.3,0,0.6,0.2,0.8,0.4
						C473.4,321,473.3,321.3,473.3,321.8z M475.9,214.1c-0.2,0.5-0.7,0.7-1,0.8c-0.1,0-0.2,0.1-0.3,0.1c0,0-0.1,0.1-0.1,0.1
						c-0.1,0-0.2,0-0.3,0c-0.2,0-0.4-0.1-0.5-0.3l-0.1-0.1l-0.3-0.3c-0.3-0.4-0.7-0.7-0.9-1.2c-0.2-0.3-0.2-0.7,0-1.2
						c0.1-0.2,0.3-0.7,0.8-0.9c0.1,0,0.3-0.1,0.4-0.1c0.8,0,1.6,0.6,2,1.1C475.9,212.9,476.1,213.5,475.9,214.1z M490.1,252.3
						c0,0.3,0,0.6-0.2,1c-0.1,0.4-0.5,0.6-0.7,0.7c0,0-0.1,0.1-0.1,0.1l-0.1,0.1c-0.1,0.1-0.3,0.2-0.5,0.2c0,0-0.1,0-0.1,0
						c-0.2,0-0.4-0.1-0.5-0.3l-0.1-0.1c0.1,0.4,0.2,0.8,0.3,1.4c0.1,0.4,0.2,1.1,0.2,1.8c0.1,1,0.1,1.4,0.2,1.6c0,0.1,0,0.1,0,0.2
						l-0.1,3.4c0,0.6,0,1.2-0.1,1.8l-0.6,6.7l-0.9,6c-0.1,1.3-0.4,2.6-0.7,3.6l-0.3,1.2c-0.1,0.6-0.2,1.2-0.4,1.8
						c-0.2,1-0.4,2-0.7,3c-0.2,0.8-0.5,1.6-0.7,2.4c-0.2,0.7-0.4,1.5-0.7,2.2l-0.2,0.9c-0.1,0.3-0.3,0.6-0.4,0.9
						c-0.1,0.2-0.2,0.4-0.3,0.6c-0.2,1.1-0.6,2.5-1.3,2.9c-0.1,0.1-0.4,0.1-0.5,0.1c-0.2,0-0.6-0.2-0.7-0.4c-0.2-0.3-0.1-0.6,0-1
						l0.4-2c0-0.2,0.1-0.5,0.2-0.7c0.1-0.2,0.2-0.5,0.2-0.7c0-0.3,0.1-0.7,0.1-1c0.1-0.9,0.4-1.8,0.6-2.7c0.2-0.7,0.3-1.4,0.5-2.1
						c0.1-0.8,0.3-1.7,0.5-2.5c0.2-0.9,0.4-1.7,0.5-2.5l0.4-2.5c0.1-0.5,0.1-1,0.2-1.4c0-0.4,0.1-0.8,0.1-1.1
						c0.2-1.7,0.4-3.4,0.7-5.2l0-0.3c0.1-1.6,0.3-3.3,0.5-5.1c0-0.4,0-0.7-0.1-1.2c-0.1-0.5-0.1-1-0.1-1.5c0.1-1,0.2-1.9,0.3-2.9
						c0.1-1,0.2-2,0.4-2.9c0.1-0.5,0.1-1,0.2-1.5l0.1-1.4c0-0.9,0.1-1.1,0.2-1.2c0.1-0.2,0.4-0.3,0.6-0.3c0.3,0,0.5,0.1,0.6,0.4
						c0-0.5-0.1-1,0-1.6c0-0.4,0.2-0.7,0.4-1l0.1-0.2l0.1-0.3c0.1-0.2,0.3-0.4,0.6-0.4c0,0,0,0,0,0c0.2,0,0.4,0.1,0.6,0.3l0.2,0.2
						c0.1,0.1,0.1,0.1,0.1,0.2c0.2,0.2,0.3,0.4,0.4,0.7c0.1,0.3,0.1,0.6,0.1,0.9c0,0.1,0,0.2,0,0.2c0,0,0,0.1,0,0.1L490.1,252.3z
						 M439.4,309.5c0.1-0.2,0.2-0.3,0.3-0.5c0,0.1,0,0.2-0.1,0.3C439.6,309.3,439.6,309.4,439.4,309.5
						C439.4,309.4,439.4,309.5,439.4,309.5z M454,228.4c-0.2-0.3-1.1-0.9-1.1-1.2c0.6-0.3,0.3-0.9,0.3-1.4c0-0.4-0.1-0.9,0.1-1.3
						c0.3-0.7,0.1-1.4,0.1-2.1c0-0.1,0-0.3,0-0.4c0-1.3-0.1-1.8,0-1.6c0.3,0.4,0.4,1.1,0.5,1.6c0,1,0.4,1.7,0.2,2.7
						c0.1,1.8,0.6,4.3,0.4,6.1c0,0.2-0.1,0.3-0.2,0.5c0,0-0.1,0.1-0.1,0.1c-0.1,0-0.2,0-0.2-0.1c-0.2-0.3-0.3-0.6-0.1-0.9
						C454.5,229.7,454.3,229,454,228.4z M489.9,239.4c0.3,1.5,0,2.1,0,2.3c-0.1,0.4,0,0.9,0.1,1.4c0,0.1,0.1,0.7,0.2,1.3
						c0.5,2.9,0.9,3.2,1,3.3c0.2,0.2,0.8,0.2,0.9-0.3l0-0.1c0-0.1,0.1-0.8,0-0.9c0-0.1-1.1-7.7-1.6-8.2c0-0.1-0.1-0.1-0.2-0.1
						l-0.4,0.2l0,0.1C489.9,238.5,489.7,238.6,489.9,239.4L489.9,239.4z M453.8,219.6c0.3,0,0.4-0.5,0.4-0.9c0-0.2,0-0.4,0-0.6
						c0,0,0-1.2-0.2-1.6c-0.1-0.3-0.2-0.3-0.3-0.3l-0.1,0c-0.1,0-0.2,0.1-0.3,0.2c-0.1,0.4,0.1,0.8,0.1,1.1c0,0.4,0.1,0.8,0,1.2
						c0,0.1,0,0.1,0,0.2c-0.1,0.2-0.2,0.5,0.2,0.7C453.6,219.6,453.7,219.6,453.8,219.6z M451.9,220.5c-0.2,0-0.3,0.2-0.3,0.5
						c0,1,0.1,2,0.2,3c0,0,0,0.1,0,0.1c0,0.1-0.1,0.3,0,0.4c0.1,0.1,0.2,0.1,0.3,0.2h0c0.2,0,0.3-0.6,0.3-0.6c0-0.3-0.1-0.7-0.1-1.1
						l0-0.4l0-0.2h0v-0.2c0-0.4,0-0.7,0-1.1C452.2,220.9,452.1,220.6,451.9,220.5z M453.6,213.6c-0.1,0.3,0,0.6,0,0.9
						c0,0.2,0.1,0.3,0.2,0.4c0,0,0.1,0.1,0.1,0.1l0.2,0.3l0.1-0.3c0-0.1,0.1-0.1,0.1-0.2c0.1-0.1,0.1-0.3,0.2-0.4c0-0.2,0-0.4,0-0.6
						c0-0.1,0-0.1,0-0.2l0-0.2c-0.4-2.6-1.6-2.6-0.8-0.2C453.6,213.4,453.7,213.5,453.6,213.6z M451.1,233.1c0,0.2,0.1,0.3,0.3,0.5
						c0.4,0.3,0.5,0.6,0.4,1.1c-0.1,0.2-0.1,0.5-0.1,0.7c0,0.1,0,0.3,0.1,0.3c0,0,0.1,0.1,0.3,0.1h0c0.1,0,0.3-0.1,0.3-0.2
						c0.4-1.4,0.6-2.8,0.7-4c0,0,0-0.1,0-0.1c0-0.1,0-0.2-0.1-0.3c-0.2-0.1-0.3-0.3-0.6-0.4c-0.2-0.1-0.3,0-0.4,0.1
						c-0.1,0.1-0.1,0.2-0.1,0.4c0,0.5-0.2,1-0.5,1.3C451.1,232.7,451,232.9,451.1,233.1z M454,208.3L454,208.3
						c0.3-0.1,0.3-0.2,0.3-0.6c0-0.2,0-0.4-0.1-0.7l0,0l-0.1-0.2c-0.2-0.3-0.4-0.5-0.6-0.5l0,0c-0.1,0-0.2,0.1-0.2,0.3
						C453.3,206.8,453.6,208.3,454,208.3z M457.2,210c0-0.2-0.1-0.4-0.2-0.7l-0.3-1.3c-0.5-0.8-1.5-1-2-0.4c0,0.9,0.5,1.2,0.8,1.8
						c0.1,0.3,0.3,0.5,0.4,0.8c0.1,0.2,0.2,0.5,0.3,0.7c0.5,0.9,1.2,2.8,1.5,2.5l-0.5-2.7L457.2,210z M458.4,200.2
						c0.1,0.1,0.1,0.2,0.2,0.3c0.1,0.1,0.2,0.3,0.3,0.4c0.1,0.1,0.2,0.1,0.3,0.1c0.1,0,0.3-0.1,0.4-0.2c0.1-0.1,0.2-0.3,0-0.6
						c-0.2-0.2-0.3-0.4-0.5-0.6c-0.4-0.5-0.9-1-1.4-1.4c-0.1-0.1-0.2-0.2-0.3-0.4c-0.3-0.3-0.6-0.7-1.2-0.8h-0.1
						c-0.1,0-0.2,0.1-0.2,0.1c-0.1,0.2,0,0.3,1.1,1.6C457.6,199.2,458.1,199.8,458.4,200.2z M456.1,203.2c0.2,0.1,0.3,0.3,0.5,0.4
						c0.1,0.1,0.2,0.1,0.2,0.1c0.1,0,0.1,0,0.2-0.1c0.2-0.1,0.2-0.4,0.1-0.6c-0.1-0.2-0.3-0.3-0.5-0.5c-0.2-0.2-0.3-0.3-0.4-0.5
						c-0.2-0.5-0.4-0.8-0.7-1c-0.2-0.2-0.5-0.2-0.7,0c-0.2,0.2-0.1,0.4,0,0.5C455.1,202.2,455.6,202.7,456.1,203.2z M450.9,231.9
						l0.1,0.1l0.1-0.1c0,0,0,0,0,0c0.1-0.1,0.2-0.1,0.2-0.2c0.1-0.6,0.1-1,0.2-1.5c0-0.1,0-0.3-0.1-0.4l0-0.1c0-0.1-0.1-0.2-0.2-0.2
						c-0.1,0-0.2,0.1-0.3,0.2c0,0.2,0,0.4-0.1,0.6c-0.1,0.3-0.1,0.6-0.1,0.9c0,0,0,0.1,0,0.1c0,0.1,0,0.2,0,0.3
						C450.7,231.7,450.8,231.8,450.9,231.9C450.9,231.9,450.9,231.9,450.9,231.9z M493.5,266c0-1.7,0-3.5-0.1-4.2c0,0,0-0.9-0.1-1.2
						c-0.2-0.5-0.9,1.2-0.9,1.2c-0.1,0.3-0.2,0.7-0.2,1c-0.2,0.7,0,1.5-0.1,2.2c0,0.3,0,0.7-0.1,1.2c-0.1,1.9,0,6.5,0.1,6.5
						c0.1,0,0.6-0.4,0.6-0.4c0.6-1,0.8-2.4,0.8-3C493.5,268.6,493.5,267.3,493.5,266z M450.1,242.3L450.1,242.3
						c0.5,0,0.8-0.5,0.9-1.4c0.1-0.6,0-1.1-0.1-1.6c0-0.2-0.1-0.4-0.1-0.7c0-0.1-0.1-0.4-0.3-0.4c-0.1,0-0.2,0.1-0.2,0.1
						c-0.1,0.1-0.2,0.2-0.2,0.4c-0.1,0.5-0.2,1-0.3,1.6l-0.1,0.6c-0.1,0.4,0,0.9,0.2,1.1C449.8,242.2,449.9,242.3,450.1,242.3z
						 M449.3,246.6c0.1,0,0.2,0,0.2,0c0.3,0,0.4-0.2,0.4-0.3c0-0.3,0.1-0.3,0.4-0.3l0.1,0c0.2,0,0.4,0,0.5,0
						c0.4-0.2,0.3-0.6,0.3-0.8c0-0.3-0.2-0.4-0.4-0.4c-0.1,0-0.1,0-0.2,0c-0.1,0-0.1,0.1-0.2,0.1c-0.1,0-0.2,0.1-0.3,0.1
						c-0.1,0-0.1,0-0.1,0c-0.1,0-0.3,0-0.3-0.4c0,0,0-0.2,0.1-0.3c0.1-0.4,0.1-0.5,0.1-0.6c0-0.1-0.1-0.2-0.2-0.2c0,0,0,0-0.1,0
						l-0.1,0l-0.1,0c0,0-0.1,0.1-0.2,0.1c-0.3,0.6-0.5,1.9-0.4,2.6C448.9,246.4,449.1,246.6,449.3,246.6z M448.1,255
						c0.7-0.1,0.6-1.8,1.2-2.4c0.2-0.2,0.3-0.6,0.4-0.9c0-0.7,0-1.4-0.3-2.1l-0.1-0.2l-0.2,0.2C448.2,250.5,446.8,253.2,448.1,255
						C448.1,254.9,448.1,255,448.1,255z"/>
					<path class="st0" d="M264.2,191.4c-0.3,0-0.6-0.1-0.9-0.4c-0.2-0.2-0.2-0.4-0.2-0.6c0.4-1.7,1.8-3.1,3.3-4.4
						c0.5-0.5,1.1-1,1.6-1.6c0.1-0.1,0.3-0.2,0.5-0.2c0.2,0,0.4,0.1,0.5,0.2c0.2,0.2,0.3,0.6,0.1,0.9
						C269.3,185.3,266.3,191.4,264.2,191.4z M488.7,221.9c-0.3-0.1-1.2-1.2-1.3-1.8c0-0.2-0.2-0.4-0.3-0.5c-0.8-0.8-1.1-2-1.8-2.9
						c-0.2-0.2-0.3-0.5-0.5-0.8c-0.5-1.1-1-2.3-1.9-3.3c-0.2-0.2-1.6-2.6-1.7-2.8c-0.4-1-0.7-1.7-1.5-2.3c-0.2-0.2-0.9-0.7-1-0.9
						c-0.5-1.1-1.1-1.8-2-2.5c-0.6-0.4-1-0.9-1.5-1.4c-0.6-0.7-1.2-1.6-1.9-2.3c-0.7-0.7-1.7-2.5-2.3-3.1c-1.4-1.4-2.5-1.7-3.9-3.1
						c-0.4-0.4-0.8-0.8-1.2-1.1c-1-0.8-2-1.7-3-2.5c-0.4-0.4-0.8-0.9-1.4-0.9c0,0-0.1,0-0.1-0.1c-0.7-1.1-2-1.4-2.7-2.4
						c-0.4-0.5-1.1-0.8-1.7-1c-0.3-0.1-0.6-0.2-0.8-0.4c-0.2-0.3-0.5-0.5-0.7-0.8c-0.7-1-1.4-0.5-2.6-0.8c-0.4-0.1-0.9-0.2-1.2-0.6
						c-0.1-0.1-0.3-0.2-0.4-0.3c-0.4-0.1-0.6-0.3-0.7-0.6c-0.1-0.3-0.3-0.5-0.4-0.7c-0.1-0.3-0.4-0.4-0.7-0.3
						c-0.4,0.1-0.7,0.1-0.9-0.4c-0.1-0.2-0.2-0.3-0.4-0.3c-0.4,0-0.7-0.2-1-0.4c-0.2-0.1-0.4-0.3-0.2-0.5c0.3-0.3,0.1-0.5-0.1-0.8
						c-0.3-0.3-0.6-0.6-1-0.5c-0.3,0.1-0.5,0.1-0.8,0.2c-0.4,0.2-0.7,0.1-0.9-0.3c-0.2-0.5-0.8-0.5-1.2-0.6
						c-0.3-0.1-0.7-0.2-0.9-0.5c-0.2-0.4-0.6-0.5-1-0.7c-0.9-0.3-1.7-0.7-2.5-1.3c-0.8-0.6-1.8-0.9-2.7-1.2
						c-0.2-0.1-0.5-0.1-0.6-0.2c-0.5-0.3-0.9-0.7-1.4-1c-0.5-0.3-1.1-0.1-1.5-0.5c-0.4-0.3-0.8-0.5-1.4-0.5c-0.2,0-0.3-0.1-0.5-0.2
						c-0.5-0.3-1-0.5-1.5-0.7c-0.8-0.3-3.4-2.5-4.2-2.2c-0.2,0.1-0.4,0-0.5-0.1c-0.9-0.3-2.1-1.2-2.9-1.6c-1-0.5-2-0.9-3-1.2
						c-0.7-0.3-1.3-0.8-2-1.2c-0.6-0.3-1.3-0.4-1.9-0.5c-0.8-0.2-1.6-0.4-2.4-0.6c-0.1,0-0.3-0.1-0.4-0.2c-0.6-0.5-1.4-0.7-2.2-0.9
						c-0.9-0.3-1.8-0.5-2.7-0.7c-0.8-0.2-1.5-0.4-2.2-0.7c-1.4-0.5-2.9-0.9-4.3-1.2c-0.9-0.2-1.9-0.3-2.8-0.6
						c-2.3-0.6-4.6-1-6.9-1.3c-1.4-0.2-2.8-0.6-4.3-0.9c-0.2,0-0.4-0.2-0.7-0.2c-1.4-0.1-2.9-0.4-4.3-0.3c-0.5,0-1.1,0-1.6-0.2
						c-0.2-0.1-0.4-0.1-0.7-0.1c-2.3-0.1-4.1-0.7-6.4-0.9c-1.2-0.1-2.3-0.2-3.5-0.2c-1.2,0-2.3-0.3-3.5,0.2c-0.2,0.1-0.5,0-0.7,0
						c-0.6,0.1-1.2-0.6-1.8-0.1c-0.2,0.2-0.5,0.1-0.8,0.1c-0.4,0-0.7-0.4-1.1-0.4c-0.2,0-0.4,0.1-0.5,0.1c-1.1-0.4-2.2,0.1-3.3,0
						c-0.2,0-0.5,0-0.7,0c-0.8,0.2-1.4-0.7-2.3-0.3c-0.7,0.4-1.6,0.2-2.4,0.2c-0.8,0-1.6,0-2.4,0.2c-0.7,0.2-1.4,0.3-2.1,0
						c-0.2-0.1-0.5,0-0.8-0.1c-0.1,0-0.2,0-0.3,0c-0.6,0.3-1-0.3-1.6-0.1c-0.5,0.1-1,0.3-1.5,0.2c-0.8-0.2-1.6-0.2-2.4,0
						c-0.3,0.1-0.6-0.1-0.9-0.3c-0.3-0.2-0.6-0.3-0.8,0.1c-0.1,0.4-0.5,0.5-0.8,0.5c-1.1,0-2.2,0.1-3.3,0.3c-0.2,0-0.5,0-0.7-0.1
						c-1-0.3-1.9-0.1-2.7,0.4c-0.2,0.1-0.4,0.3-0.6,0.1c-0.4-0.2-0.7-0.2-0.9,0.2c-0.2,0.2-0.5,0.3-0.8,0.2
						c-0.4-0.1-0.8-0.2-1.2-0.3c-0.3-0.1-0.4-0.4-0.2-0.6c0.1-0.1-1.8,0.8-2,1.2c-0.1,0.3-0.3,0.4-0.6,0.4c-0.7,0-1.3,0.1-1.8,0.7
						c-0.3,0.4-0.8,0.5-1.3,0.5c-0.5,0-0.9,0-1.2-0.5c-0.1-0.2-0.3-0.2-0.5-0.1c-0.5,0.1-1,0.2-1.2,0.8c-0.1,0.3-0.4,0.4-0.7,0.6
						c-0.6,0.2-1.6,0.4-1.8,0.5c-0.4,0.1-0.8,0.2-1.2,0.3c-0.2,0-0.4,0.1-0.6,0.2c-0.6,0.6-1.4,0.7-2.1,0.6
						c-0.7-0.1-1.3,0.1-1.8,0.4c-0.7,0.4-1.5,0.5-2.2,0.7c-0.7,0.2-1.3,0-1.9-0.5c-0.2-0.2-2,0.4-2.1,0.2c0-0.1-0.2-0.1-0.3-0.1
						c-0.2,0-0.3,0.1-0.4,0.3c-0.1-0.1-0.8-0.5-1-0.3c-0.2,0.3-2.4,1.9-2.8,1.8c-0.4-0.1-0.9-0.2-1.3-0.2c-0.2,0-0.3,0.1-0.4,0.3
						c0,0.2-0.5,0.7-1.1,0.7c-0.8,0-1.4,0.2-1.7,1c-0.2,0.5-0.5,0.5-1,0.2c-0.2-0.1-0.5-0.3-0.5-0.6c-0.1-0.2-0.2-0.2-0.3-0.1
						c-0.3,0.2-0.9,0.7-1,0.5c-0.2-0.5-3.9,2.3-4.4,2.1c-0.3-0.2-2.9,2.2-3.1,2.5c-0.2,0.2-0.3,0.4-0.7,0.4
						c-0.6-0.1-0.9,0.2-1.3,0.5c-0.6,0.5-1.6,1.7-1.8,1.8c-1,0.9-2.1,1.6-3.4,1.7c-0.6,0.1-1.1,0.1-1.3,0.7
						c-0.1,0.2-0.3,0.3-0.5,0.4c-0.5,0.2-0.9,0.5-1.3,0.8c-0.3,0.3-0.6,0.4-0.9,0c-0.1-0.2-0.5-0.1-0.6,0c-0.5,0.6-1.3,0.8-1.7,1.5
						c-0.3,0.5-0.8,0.9-1.4,1c-0.4,0.1-3.4,3.5-3.5,3.9c-0.1,0.3-0.4,0.4-0.7,0.6c-0.5,0.2-1.2,0.3-1.3,1c0,0.1-0.2,0.2-0.3,0.2
						c-0.6,0.2-1,0.6-1.2,1.2c-0.2,0.5-0.7,0.5-1,0.9c-1.2,1.2-2.6,2.3-3.7,3.6c0,0-0.2,0.1-0.2,0c-0.1,0-0.1-0.2-0.1-0.2
						c0-0.1,0.1-0.3,0.1-0.4c0.6-0.8,1.1-1.6,1.6-2.5c0.3-0.5,0.6-1,1-1.5c0.2-0.3,0.4-0.6,0.1-1c-0.2-0.2,0-0.5,0.2-0.8
						c0.2-0.3,0.3-0.6,0.3-0.9c0,0,0-0.1,0-0.1c-0.1,0-0.2-0.1-0.2-0.1c-0.4,0.2-1.7,1.8-2,1.8c-0.1,0,0-0.5,0-0.5
						c0.4-0.5,0.9-2.2,1.7-2.5c0.1-0.1,0.2-0.3,0.4-0.4c0.3-0.3,0.7-0.8,1-1.2c0.2-0.2,0.4-0.5,0.5-0.8c0.5-0.9,1-1.8,1.6-2.6
						c0.2-0.3,0.5-0.6,0.5-1c0-0.2-0.1-0.3-0.3-0.4c-0.1-0.1-0.3,0-0.3,0.1c-0.2,0.6-0.6,1-1.1,1.3c-0.7,0.6-1.2,1.3-1.5,2.1
						c-0.2,0.5-0.3,0.9-0.8,1.2c-0.3,0.2-1.1,1.2-1.6,1.8c-0.1,0.2-0.2,0.3-0.4,0.2c-0.1-0.1-0.1-0.2,0-0.3c0.1-0.3-0.3-0.5-0.3-0.8
						c0-0.2-0.3-0.2-0.4-0.1c-0.1,0.2-0.2,0.3-0.3,0.5c-0.2,0.3-1.2,1.3-1.4,1c-0.5-0.6-0.4-1.5-0.1-2.2c0.2-0.3,0-1,0-1.4
						c0-0.5,0.1-1.1,0.2-1.6c0.2-1.1,0.7-2.2,0.5-3.3c-0.1-0.4,0.8-1.3,0.9-1.7c0.5-1.5,1.9-4.4,2.4-5.8c0.1-0.3,0.2-0.6,0.2-0.9
						c0.1-0.5,0-0.9-0.2-0.8c-0.3,0.1-0.5,0.3-0.6,0.6c-0.2,0.5-0.4,1-0.6,1.5c-0.1,0.2-0.1,0.3-0.2,0.5c-0.1,0.2-0.2,0.3-0.4,0.2
						c-0.1-0.1-0.2-0.2-0.2-0.3c0.1-0.8,0.6-1.9,1-2.5c0.3-0.5,0.7-0.9,0.5-1.6c-0.1-0.2,0.4-0.9,0.5-1.2c0.7-1.7,2.3-4.1,3.1-5.8
						c1-2.1,2.1-4.1,3.1-6.2c1-2,2.3-3.8,3.9-5.4c0.8-0.8,1.7-1.3,2.1-2.3c0.2-0.5,0.5-0.8,0.9-1.2c2-2.3,4-4.6,6-7
						c1.2-1.5,2.7-2.6,4.2-3.9c1-0.9,2.1-1.4,3-2.4c0.1-0.1,0.1-0.3,0.2-0.3c2.1-1.4,3.9-2.9,6-4.2c1.1-0.7,2.2-1.4,3.2-2.3
						c0.8-0.6,1.6-1.2,2.5-1.7c1.7-1,3.3-1.5,5.1-2.4c1.6-0.8,3.3-1.6,4.9-2.3c0.8-0.4,1.6-0.7,2.4-1c0.9-0.4,1.7-0.7,2.7-0.9
						c0.8-0.1,1.5-0.5,2.3-0.7c1.1-0.3,2.3-0.6,3.4-0.9c1.3-0.3,2.6-0.5,3.9-0.9c0.2-0.1,0.5-0.2,0.7-0.1c0.8,0.2,1.4,0,2.1-0.3
						c0.7-0.3,1.5-0.4,2.3-0.4c0.8,0,1.6-0.2,2.4-0.4c0.9-0.2,1.8-0.3,2.7-0.4c1.7-0.2,3.2-0.8,4.9-1c0.6-0.1,1.2-0.1,1.8-0.1
						c0.7,0,1.4-0.1,2.2-0.1c0.8,0,1.7,0,2.5,0c0.2,0,5.8-0.2,5.9-0.2c2.3-0.4,3.5-0.1,5.8,0.3c0.1,0,0.3,0.1,0.4,0
						c2.3-0.1,0.2,0.4,2.5,0.5c0.2,0,0.4-0.4,0.5-0.5c1.4-0.4,2.9-0.2,4.3,0c0.2,0,0.4,0,0.5,0.1c1,0.8,2.2,0.5,3.4,0.8
						c0.5,0.1,1,0.1,1.5,0.2c0.5,0.1,0.9,0.7,1.4,0.1c0.8,0.1,1.5,0.2,2.3,0.4c0.5,0.1,0.9,0.3,1.4,0.3c3.3,0.2,6.5,0.8,9.7,1.5
						c0.8,0.2,1.7,0.5,2.5,0.7c2.3,0.7,4.7,1.3,7.1,1.9c0.6,0.2,1.1,0.6,1.8,0.4c0.3-0.1,0.5,0.5,0.9,0.6c0.6,0.2,1.1,0.5,1.6,0.6
						c1.4,0.4,2.7,1.1,4,1.6c1.4,0.5,2.7,0.7,4.1,1.3c2.3,0.9,0.3,1.7,2.3,0.9c0.3-0.1,0.5,0.1,0.8,0.2c1,0.5,2.1,1,3.1,1.6
						c2,1.3,5.9,3,7.9,4.4c0.8,0.6,1.6,1.1,2.5,1.7c1.9,1.2,3.9,2.4,5.8,3.6c1.8,1.2,3.8,3.6,5.7,4.8c1.2,0.7,2,1.5,3.3,1.8
						c0.2,0.1,0.4,0.2,0.6,0.4c0.6,0.5,1.2,0.9,1.8,1.5c1,1.1,2.2,1.9,3.3,2.8c1.2,0.9,2.2,1.9,3.2,2.9c1.7,1.6,3.5,3.3,5.1,5.1
						c0.3,0.3,0.6,0.7,1,0.9c0.7,0.4,1.3,1,1.8,1.6c0.4,0.5,0.9,0.9,1.3,1.3c0.9,0.8,1.8,1.7,2.5,2.6c1.1,1.4,2.2,2.7,3.4,3.9
						c1.6,1.5,2.9,3.3,4.1,5.1c0.3,0.4,0.6,0.9,0.9,1.3c2.1,2.7,3.8,5.6,5.3,8.7c0.8,1.8,1.8,3.4,2.7,5.2c0.7,1.5,1.5,2.9,2.1,4.4
						c0.4,1,0.9,2,1.4,2.9c0.9,1.6,1.5,3.4,2.2,5.1c1,2.2,2,4.5,3,6.7c0.3,0.6,0.5,1.2,0.8,1.7c1.1,2.6,1.8,5.3,2.5,8
						c0,0.1,0,0.1-0.1,0.2c-0.1-0.1-0.1-0.1-0.2-0.2c-0.4-1.1-0.9-2.3-1.3-3.4c-0.8-2.6-2.2-5-3.3-7.5c0-0.1-0.1-0.2-0.1-0.2
						c-0.1-0.1-0.2-0.1-0.4-0.1c0,0-0.1,0.1-0.1,0.2c-0.1,0.3,0,0.6,0.1,0.9c0.3,0.7,0.6,1.4,0.5,2.2c0.6,1.1,0.7,2.4,1.2,3.6
						c0.8,1.7,2.4,5.8,3.2,7.5c0.1,0.2,0.1,0.4,0.1,0.5c0,0.1-0.1,0.2-0.2,0.2c-0.1,0-0.2,0-0.2,0c-0.2-0.4-0.5-0.9-0.7-1.3
						c-0.2-0.7-0.7-1.1-1.3-1.5c-0.3-0.2-0.4-0.3-0.2-0.6c0.1-0.3-1.2-3-1.3-3.4c-0.3-0.8-0.7-1.6-1-2.3c-0.2-0.4,0-0.6-0.4-0.5
						c-0.3,0-0.5-0.2-0.6-0.4c-0.3-0.4-0.3-1-0.7-1.4c-0.3-0.3-0.8-0.6-1.2-0.8c-0.3-0.1-0.4-0.5-0.7-0.7l-0.1-0.3
						c-0.1-0.6-0.5-1-0.9-1.4c-0.2-0.2-0.3-0.3-0.5-0.5l-0.1-0.1c-0.2-0.3-0.4-0.6-0.8-0.7l-0.2-0.1l-0.1,0.2
						c-0.3,0.5,0,0.9,0.2,1.1c0.1,0.1,0.1,0.2,0.1,0.2c0.1,0.2,0.1,0.4,0.3,0.5c0.1,0.1,0.3,0.3,0.4,0.4c0.3,0.3,0.6,0.8,1.3,0.8
						h0.1c0,0.3,0.1,0.5,0.2,0.7c0.6,1,1.3,2,1.9,3c0.1,0.2,0.3,0.4,0.4,0.7c0.6,1.4,1.6,2.5,2.1,4c0,0.2,1.1,2.7,1.2,2.8
						c0.6,0.6,1,1.3,1.2,2.1c0.1,0.2,0.2,0.5,0.3,0.7c0.9,1.3,1.4,2.8,2,4.3c0.2,0.5,0.4,1,0.5,1.5
						C488.9,220.5,488.8,221.9,488.7,221.9z M477.7,194.1c0,0.5,0.1,1.1,0.3,1.6c0.2,0.5,0.7,0.7,0.9,0.8c0,0,0.1,0,0.1,0.1l0.4,0.2
						c0.1,0.1,0.2,0.1,0.3,0.1c0.1,0,0.2,0,0.3-0.1c0.2-0.1,0.3-0.3,0.4-0.5l0.1-0.4l0.1-0.2l0.1-0.2c0.1-0.3,0.2-0.6,0.2-1
						c0-1-0.5-1.7-1.5-1.9l-0.2,0c0,0-0.1,0-0.1,0c-0.2,0-0.3,0.1-0.5,0.2l-0.1,0.1l-0.1,0.1C478.2,193.2,477.7,193.5,477.7,194.1z
						 M348.8,110.5c0,0.6,0.4,1.1,0.7,1.3c0.3,0.2,0.7,0.4,1.2,0.4c0,0,0.1,0,0.1,0c1.4-0.1,2.8-0.3,4.1-0.5l0.5-0.1
						c0.3,0,0.5-0.2,0.6-0.2l0.5-0.3c0.2-0.1,0.3-0.3,0.3-0.6c0-0.2-0.1-0.5-0.3-0.6l-0.5-0.3c-0.1-0.1-0.4-0.3-0.8-0.4
						c-0.7-0.1-1.4-0.1-2.1-0.2l-0.4,0L352,109c-0.1,0-0.2,0-0.3,0l-0.5,0c-0.4,0-0.9,0-1.5,0.3C349.2,109.5,348.9,110,348.8,110.5z
						 M329.3,112.4c0,0.2,0.1,0.4,0.3,0.5l0.8,0.4c0,0,0.1,0,0.1,0.1c0,0,0.2,0.1,0.2,0.1c0.2,0,0.3,0,0.5,0c0.8,0,1.4-0.3,2-0.5
						c0.5-0.2,0.7-0.7,0.8-1l0-0.1c0-0.2,0-0.4-0.1-0.5l-0.1-0.1c-0.3-0.5-0.8-0.6-0.9-0.6c-0.2-0.1-0.5-0.1-0.7-0.1
						c-0.8,0-1.5,0.2-2.2,0.7c-0.1,0.1-0.1,0.1-0.3,0.2l-0.3,0.3C329.3,112,329.3,112.2,329.3,112.4z M307.5,118.7l0,0.2
						c0,0.2,0.1,0.3,0.2,0.4l0.1,0.1c0.2,0.3,0.6,0.4,1,0.4c0.5,0,1.1-0.2,1.8-0.3c0.2,0,0.3-0.1,0.4-0.1c2.5-0.5,4.2-0.9,6.4-2.1
						l1-0.3c1.1-0.3,2.1-0.6,3.1-1l0.2-0.1c0.7-0.2,1.5-0.5,1.8-1.2c0.2,0.1,0.3,0.1,0.6,0.1c0,0,0.1,0,0.1,0l0.3-0.1
						c0.2-0.1,0.4-0.2,0.6-0.3c0,0,0,0.1,0,0.1c0.1,1.2,0.8,1.5,1.4,1.5c0,0,0.1,0,0.2,0c0.9,0,1.4-0.7,1.6-1.1
						c0.3-0.4,0.7-1,0.7-1.8c0.3-1-0.3-1.4-0.6-1.5c-0.2-0.1-0.4-0.2-0.6-0.2c-0.2,0-0.4,0-0.6,0.1c-0.3,0.1-0.6,0.2-1,0.3
						c0,0-0.1,0-0.1,0.1c-0.1-0.2-0.3-0.3-0.4-0.4c-0.2-0.1-0.5-0.2-0.9-0.2l-0.2,0c-0.1,0-0.3,0.1-0.4,0.2
						c-0.4,0.3-0.8,0.7-1.3,1.1c-0.1,0.1-0.2,0.2-0.2,0.3c-0.2-0.1-0.5-0.2-0.9-0.2c-0.7,0-1.5,0.3-1.6,0.4
						c-0.6,0.3-1.3,0.5-2.1,0.7c-0.7,0.2-1.5,0.5-2.3,0.8c-0.9,0.2-1.8,0.5-2.6,0.7c-0.7,0.3-1.4,0.5-2.2,0.6
						c-0.9,0.2-1.8,0.6-2.3,0.8C308.3,117.2,307.6,117.9,307.5,118.7z M296.2,145.9c-0.3,0-0.6,0.1-0.8,0.2c0,0-0.1,0-0.1,0
						c0,0-0.1,0-0.2,0c-0.6,0-1.1,0.3-1.5,0.7c-0.4,0.5-0.5,1.1-0.2,1.7c0.2,0.5,0.7,0.8,1.3,0.8c0.2,0,0.4-0.1,0.6-0.2
						c0.3-0.1,0.5-0.3,0.7-0.4l0,0c0.5,0,0.9-0.1,1.4-0.3c0.5-0.2,1-0.4,1.5-0.5l0.8-0.3c0.4-0.1,0.8-0.3,1.1-0.4c1-0.3,2-0.6,3-1.1
						c0.5-0.2,0.9-0.4,1.4-0.4c1.1-0.1,2-0.5,3-0.9c0.7-0.3,1.4-0.6,2.1-0.7c0.8-0.2,1.3-1,1.2-1.9c-0.1-0.7-0.6-1.2-1.3-1.3l0.1,0
						c0.9-0.1,1.8-0.2,2.7-0.8c0.1-0.1,0.2-0.1,0.4-0.1c0.4-0.1,0.8-0.2,1.3-0.6c0.2-0.1,0.9-0.2,1.1-0.2c1.1,0,2-0.4,3-0.7l1.9-0.6
						c1-0.3,1.9-0.6,2.9-0.9c0.2-0.1,0.5-0.1,0.9-0.2c0.5-0.1,1-0.2,1.6-0.4c1-0.4,2.2-0.7,3.3-1l1.2-0.3c0.8-0.2,1.5-0.4,2.2-0.4
						c0.2,0,0.3,0,0.5,0c0,0,0.1,0,0.1,0c0.2,0,0.5,0.5-0.6,0.6l-0.1,0c-1.9,0.3-4,0.9-6.6,1.8c-0.8,0.3-1.5,0.5-2.3,0.6
						c-1,0.1-2.1,0.5-3.4,1.3c-0.5,0.3-1,0.6-1.5,0.6c-1,0.1-1.7,0.7-2.1,1.1c-0.3,0.3-0.5,0.8-0.4,1.2c0.1,0.5,0.4,0.9,0.9,1.2
						c0.3,0.1,0.6,0.2,0.8,0.2c0.3,0,0.5-0.1,0.7-0.2c0.3-0.2,0.7-0.3,1.2-0.3c0.4-0.1,0.9-0.2,1.4-0.4c0.6-0.2,1.2-0.4,1.9-0.5
						c0.7-0.2,1.5-0.3,2.2-0.6c0.3,0.2,0.7,0.3,1.1,0.3c0.2,0,0.4,0,0.6-0.1c0.1,0,0.3,0,0.4,0c0.6,0,1.2-0.2,1.7-0.5
						c0,0,0.1,0,0.2,0c0.8-0.1,1.7-0.2,2.5-0.2l0.7-0.1c0.6-0.1,1.3-0.1,2-0.1c1.2,0,1.8-0.7,2.3-1.3c0.3-0.3,0.5-0.8,0.4-1.2
						c0.5-0.2,1-0.3,1.5-0.4c0.5-0.1,0.9-0.3,1.4-0.5c0.2-0.1,0.3-0.2,0.4-0.2c0.4-0.1,1.2-0.4,1.7-1.2c0,0,0.2-0.1,0.2-0.1
						c0.2-0.1,0.3-0.1,0.5-0.2c0.3-0.1,0.6-0.2,1-0.3c0.2-0.1,0.6-0.3,0.8-0.6c0.3,0.1,0.6,0.2,0.9,0.2c0.2,0,0.4,0,0.5,0
						c1.5-0.3,3.1-0.5,4.6-0.8l1.2-0.2c0.5-0.1,0.9-0.4,1.3-0.8c0-0.1,0.1-0.1,0.1-0.2c0,0,0,0,0,0c0.8,0.3,1.3,0.4,1.9,0.4
						c0.7,0,1.3-0.2,2.1-0.7c0.3-0.2,0.7-0.3,1.2-0.3c0.9,0,1.9,0,3-0.6c0.3,0.1,0.6,0.2,0.9,0.2c0.1,0,0.3,0,0.5,0
						c0.3,0,0.5-0.1,0.8-0.1h0c0.4,0,0.7,0,1.1,0c1.1,0,2.2-0.1,3.4-0.2l0.6-0.1c0.4,0,0.9-0.2,1.4-0.3c0.4-0.2,0.7-0.4,0.8-0.8
						c0.1,0.1,0.2,0.2,0.4,0.2c0.6,0.2,1.2,0.4,1.7,0.5c1,0.2,2.1,0.4,3.3,0.4c0.5,0,1,0.1,1.4,0.2l0.2,0c0.2,0,0.4,0.1,0.6,0.1
						c0,0,0.1,0,0.1,0c0,0,0.2,0,0.2,0c0.2,0,0.4,0,0.6-0.1c0.4-0.1,0.7-0.4,0.9-0.7c0.2-0.3,0.2-0.6,0.2-0.9h0c0.3,0,0.7-0.2,1-0.5
						c0.2-0.2,0.2-0.5,0.2-0.6c0,0,0-0.2,0-0.2c0-0.1-0.1-0.3-0.1-0.4c0-0.1-0.2-0.3-0.4-0.5l-0.2-0.1c-0.5-0.3-1-0.6-1.7-0.6
						c-0.1,0-0.2,0-0.4,0c-0.2,0-0.5,0.2-0.7,0.3c-0.4-0.4-0.8-0.8-1.1-1.1c-0.3-0.2-0.6-0.3-1-0.3c-0.2,0-0.4,0-0.6,0.1
						c-0.1,0-0.2,0-0.2,0.1c-0.3-0.1-0.6-0.2-0.9-0.2l-0.3-0.1l-0.3-0.1c-0.5-0.1-1-0.2-1.6-0.4c-0.1,0-0.3,0-0.4,0
						c-0.4,0-0.8,0.1-1.1,0.3c-0.4,0.2-0.7,0.5-0.8,1c0,0.1,0,0.1,0,0.2c-0.2-0.3-0.5-0.6-0.9-0.7c0,0-0.2,0-0.2,0
						c-0.5,0-0.9,0.2-1.2,0.6c-0.1,0.1-0.2,0.2-0.3,0.4c-0.3-0.1-0.7-0.1-0.9-0.1l-0.2,0c-0.2,0-0.4,0-0.6,0h-0.2
						c-0.5,0-1,0-1.5-0.1c-1-0.3-2.2-0.4-3.5-0.4l-1,0c-0.9,0-1.9,0-2.8,0.1c0.1-0.4,0-0.8-0.3-1.1c-0.3-0.3-0.7-0.5-1.1-0.5
						c-0.4,0-0.7,0.1-0.9,0.2c-0.7,0.3-0.9,1-0.8,1.5c0,0.1,0,0.1,0,0.2l0,0c-0.8,0.1-1.5,0.3-2.3,0.4c-0.3,0.1-0.5,0.1-0.8,0.1
						c-0.2,0-0.4,0-0.7,0.1c-0.1,0-0.1,0-0.2,0c-0.3-0.4-0.8-0.7-1.3-0.7c-0.4,0-0.8,0.2-1,0.3c-0.4,0.2-0.8,0.3-1.3,0.3
						c-0.1,0-0.5,0-0.6,0c-0.5,0-0.9,0.1-1.3,0.2c-0.3,0.1-0.6,0.1-0.9,0.1c0,0-0.2,0-0.2,0c-0.2,0-0.3,0.1-0.5,0.2l-0.1,0.1
						c-0.2,0.2-0.5,0.3-0.9,0.3c-0.3,0-0.6,0-1-0.1c-0.1,0-0.3,0-0.4,0c-0.3,0-0.6,0-0.8,0.1l-0.3,0.1c-0.7,0.2-1.5,0.5-2.2,0.7
						l-0.4,0.1c0,0-0.1,0-0.2,0c-0.3,0-0.7,0-1-0.1c-0.3,0-0.6-0.1-0.9-0.1c0,0,0,0,0,0c-1,0.1-1.9,0.4-2.8,0.7l-0.5,0.2
						c-0.5,0.2-1.1,0.3-1.6,0.4c-1.1,0.2-1.9,0.4-2.7,0.8c-0.2,0.1-0.3,0.1-0.3,0.1h0c-0.2-0.1-0.5-0.2-0.8-0.2
						c-0.4,0-0.8,0.2-1.1,0.4c-0.3,0.3-0.6,0.4-1.2,0.5c-0.4,0.1-0.8,0.2-1.2,0.3c-0.4,0.2-0.8,0.4-1.2,0.5c-1,0.5-1.6,0.8-2.4,0.8
						c-0.3,0-0.5,0-0.8-0.1c-0.2-0.1-0.5-0.1-0.7-0.1c-0.8,0-1.3,0.5-1.7,1.1c-0.3-0.1-0.6-0.2-0.8-0.2c-0.7,0-1.3,0.5-1.6,0.9
						c-0.4,0.5-1,0.8-1.5,0.9c-1.3,0.2-2.5,0.9-3.6,1.9c-0.1,0.1-0.2,0.2-0.3,0.3c-0.1,0.1-0.2,0.2-0.2,0.3
						c-0.8,0.3-1.4,0.7-1.9,1.3c0-0.1-0.1-0.3-0.2-0.4c0,0-0.1-0.1-0.1-0.1l-0.1-0.3c0-0.1-0.1-0.2-0.3-0.3c0.2-0.1,0.4-0.1,0.6-0.2
						c0.4-0.1,0.7-0.3,0.9-0.4c0,0,0.1-0.1,0.2-0.1c0.5-0.3,0.5-0.8,0.5-1c0-0.2,0.4-0.2,0.8-0.2c0.3,0,0.5-0.1,0.8-0.2
						c0.1-0.1,0.2-0.2,0.3-0.3c0.7-0.1,1.2-0.4,1.7-0.7c0.2-0.1,0.4-0.3,0.6-0.3c0.6-0.2,0.7-0.8,0.8-0.9l0.1-0.2
						c0.1-0.3,0-0.6-0.3-0.8l-0.1-0.1c-0.2-0.2-0.5-0.3-0.8-0.3l0,0c-0.9,0-1.7,0.4-2.4,0.7c-0.4,0.2-0.7,0.3-1.1,0.4l-0.1,0.1
						c-0.2,0.1-0.3,0.2-0.4,0.3l-0.1,0.1c-0.2,0.4-0.3,1.2-0.4,1.1c-0.1,0-0.2-0.1-0.3-0.1l-0.3-0.1c-0.1,0-0.1,0-0.2,0
						c-0.1,0-0.2,0-0.3,0c-0.2,0.1-0.5,0.1-0.7,0.1c-0.7,0.1-1.6,0.2-2.3,0.7c-0.7,0.4-1.3,0.7-2.1,1l-0.8,0.4
						c-0.3,0.1-0.6,0.3-1,0.6c-0.4,0.3-0.6,0.7-0.5,1.3l0.1,0.2c0.1,0.3,0.3,0.5,0.5,0.5l0.2,0c0.1,0,0.2,0.1,0.4,0.1
						c0.3,0.1,0.7,0.2,1.1,0.2c0.2,0,0.5,0,0.7-0.1l0.5-0.2c0.3-0.1,0.6-0.2,0.9-0.4c-0.1,0.2-0.2,0.3-0.3,0.5l-0.1,0.2
						c-0.1,0.2-0.5,0.8-0.2,1.5c0.1,0.3,0.4,0.6,0.7,0.8c-0.7,0.4-1.3,0.7-2.1,0.8c-0.6,0-1.6,0.2-2.2,1
						C297.7,145.8,297.2,145.9,296.2,145.9z M364.2,134.9l-0.4-0.3c0,0-0.2-0.1-0.4-0.2c-0.6-0.2-1.3-0.2-2.1-0.2
						c-1,0-2.2,0.1-3.7,0.4c-0.9,0.2-1.6,0.9-1.7,1.9l-0.1,0.4c0,0.2,0,0.4,0.2,0.6c0.1,0.1,0.3,0.2,0.5,0.2c0,0,0.4,0,0.4,0
						c1.6-0.1,3.1-0.4,4.6-0.6l0.2,0c0.8-0.1,1.4-0.4,2.1-0.8l0.4-0.3c0.2-0.1,0.3-0.4,0.3-0.6C364.6,135.3,364.4,135.1,364.2,134.9
						z M283,135.7c0,0.1,0,0.1,0.1,0.2l0.1,0.2c0.1,0.2,0.4,0.4,0.6,0.4c0,0,0.1,0,0.1,0l0.4-0.1c0.2,0,0.4,0,0.6-0.1
						c0.7-0.3,1.4-0.7,2-1.5c0.1-0.2,0.5-0.6,0.4-1.3c-0.1-0.4-0.3-0.7-0.6-0.9c-0.2-0.2-0.5-0.2-0.8-0.2c-0.3,0-0.7,0.1-0.9,0.3
						c-0.6,0.5-1.3,1-1.8,1.5C283,134.3,282.8,134.6,283,135.7z M277.8,141.9c0.1,0.1,0.4,0.2,0.5,0.2c0,0,0.2,0,0.2,0
						c0.3,0,0.8-0.1,1.3-0.6l0.5-0.5c0.8-0.8,1.6-1.7,2.4-2.5c0.3-0.3,0.4-0.7,0.6-1.1c0.2-0.5,0-1.1-0.3-1.4
						c-0.2-0.3-0.6-0.4-1.1-0.4h0c-0.3,0-0.7,0.2-1,0.4c-1.2,1.1-2.3,2.4-3.3,3.9c-0.2,0.3-0.3,0.6-0.3,0.8
						C277.2,141.2,277.4,141.5,277.8,141.9z M266.3,181.4c0,0,0-0.2,0-0.2c-0.2-0.6-0.7-0.9-1.3-0.9c-0.2,0-0.5,0.1-0.7,0.2
						c-0.4,0.2-0.7,0.5-0.9,0.8c-0.3,0.5-0.2,1-0.2,1.1c0.1,0.5,0.4,0.8,0.6,0.8c0.2,0.1,0.4,0.1,0.6,0.1c0.7,0,1.3-0.6,1.3-0.7
						C265.9,182.5,266.3,182.1,266.3,181.4z M269.3,163.6c0-0.1,0-0.2,0-0.3c-0.1-0.6-0.5-0.9-1.1-1.1c-0.2-0.1-0.4-0.1-0.6-0.1
						c-0.6,0-1.1,0.2-1.5,0.6c-0.1,0.1-0.1,0.1-0.2,0.2c-0.4,0.3-1,0.8-1,1.7c0,0.6-0.1,0.9-0.3,1.2c-0.4,0.5-0.2,1.2,0.1,1.5
						c0.2,0.3,0.6,0.4,1,0.4c0.2,0,0.4-0.1,0.6-0.1c0.2-0.1,0.3-0.2,0.5-0.4c0.8-1,1.5-1.9,2.2-2.9
						C269.3,164.1,269.3,163.7,269.3,163.6z M273.6,167.7c-0.1-1-0.8-1.2-1.2-1.3c-0.4,0-0.9,0.2-1.1,0.7c-0.3,0.6-0.6,1.1-0.9,1.7
						c-0.2,0.4-0.1,0.8,0,0.9l0.1,0.3c0.1,0.3,0.4,0.5,0.7,0.5c0.1,0,0.1,0,0.2,0l0.3-0.1c0.1,0,0.5-0.1,0.8-0.4
						c0.3-0.3,0.7-0.8,1-1.3C273.7,168.4,273.7,167.9,273.6,167.7z M276.1,158.2c0.1-0.1,0.2-0.1,0.3-0.2l0.3-0.2
						c1.3-0.9,2.7-2,3.7-3.5c0.8-1.1,1.9-2,3-2.9c0.2-0.1,0.5-0.3,0.7-0.6c0.3-0.5,0.8-1,1.4-1.5l0.1-0.1c0.4-0.4,0.8-0.8,1.2-1.2
						c0.2-0.1,0.3-0.1,0.5-0.3c0.1-0.1,0.1-0.1,0.2-0.2l0.2,0c0.8-0.3,1.9-0.6,2.5-1.9c0-0.1,0.2-0.2,0.4-0.3
						c0.2-0.2,0.5-0.3,0.7-0.6c0.9-0.3,1.3-0.9,1.6-1.5c0,0,0.1,0,0.1-0.1c0.1-0.1,0.2-0.2,0.2-0.2c0.5-0.2,0.9-0.5,1.2-0.7
						c0.2-0.2,0.4-0.3,0.6-0.4c0.4-0.2,0.6-0.6,0.6-0.8c0.3-0.6,0.1-1.3-0.4-1.7c-0.3-0.2-0.6-0.3-0.9-0.3c-0.4,0-0.8,0.2-1,0.5
						c-0.3,0.4-0.6,0.6-1.1,1l-0.4,0.3c0,0-0.1,0.1-0.1,0.1c-0.4,0-0.7,0.1-1,0.4l-1.5,1.2c-0.3-0.3-0.8-0.5-1.2-0.5
						c-0.6,0-1.2,0.3-1.4,0.9c-0.2,0.4-0.5,1-0.2,1.7c0,0.1-0.2,0.3-0.2,0.3l-0.1,0.2c0,0-0.1,0.1-0.2,0.2c-0.1,0.1-0.2,0.2-0.3,0.3
						l-0.2,0.3c-0.4,0.1-0.8,0.3-1.1,0.6c-0.2,0.1-0.3,0.3-0.5,0.4c0.3-0.6,0.1-1.1-0.1-1.4c-0.3-0.4-0.7-0.7-1.1-0.7
						c-0.5,0-0.9,0.3-1.1,0.5c-0.1,0.1-0.3,0.2-0.4,0.3c-0.3,0.2-0.5,0.4-0.8,0.6c-0.2,0.2-0.3,0.3-0.5,0.4l-0.2,0.2
						c-0.7,0.5-1.4,1.2-1.9,2.2c-1,0.3-1.7,1-2.3,2.1c-0.2,0.3-0.3,0.9,0,1.4c0.1,0.1,0.2,0.2,0.3,0.3c-0.1,0.1-0.3,0.3-0.4,0.5
						l-0.2,0.3c-0.5,0.7-1,1.4-1.6,1.9c-0.6,0.4-0.9,1-1.2,1.4c-0.3,0.5-0.5,0.8-0.8,1c-0.5,0.3-0.8,0.8-1,1.2l-0.1,0.1l-0.1,0.2
						c-0.5,0.8-0.3,1.9,0.6,2.5c0.3,0.2,0.5,0.3,0.8,0.3c0.3,0,0.8-0.1,1.2-0.6c0.4-0.4,0.9-0.8,1.4-1.2
						C274.7,159.7,275.5,159.1,276.1,158.2z M279,163.2c0.4-0.3,0.7-0.8,0.8-1.2c0,0,0.1,0,0.1,0c0.5-0.1,1.1-0.5,1.1-1.1
						c0,0,0-0.1,0-0.1l0,0c0.6,0,1.1-0.3,1.6-0.9c0.1-0.1,0.1-0.2,0.2-0.2c0.4-0.1,0.8-0.3,1-0.7c0.2-0.3,0.5-0.6,0.7-0.9l0.6-0.7
						c0.3-0.3,0.3-0.8,0.2-1.2c-0.1-0.4-0.4-0.7-0.9-0.8c-0.2,0-0.3-0.1-0.6-0.1l-0.1,0c-0.2-0.1-0.3-0.1-0.5-0.1
						c-0.6,0-1.1,0.4-1.3,0.7c0,0-2.3,2.4-2.6,2.7c-0.1,0.1-0.2,0.3-0.3,0.4c-0.3,0.3-0.5,0.6-0.5,0.9c-0.1,0-0.2,0-0.3,0.1
						c-0.6,0.3-0.9,0.8-1.1,1.1l-0.1,0.1c-0.4,0.5-0.5,1-0.4,1.5c-0.1,0-0.1,0-0.2,0l0,0c-0.5,0-1,0.3-1.3,0.8
						c-0.3,0.5-0.4,1-0.2,1.5c0.1,0.4,0.4,0.6,0.6,0.7l0.2,0.1c0.1,0.1,0.2,0.1,0.3,0.1c0,0,0.1,0,0.1,0l0.1,0c0.1,0,0.4,0,0.6-0.2
						c0.7-0.4,1.1-1.1,0.9-2c0,0,0,0,0,0c0.1,0,0.1,0,0.2,0C278.1,163.7,278.6,163.6,279,163.2z M354.4,141.2c0,0,0.5,0.1,0.5,0.1
						c0.1,0,0.2,0,0.3,0c0.3-0.1,0.5-0.2,0.9-0.3c0.3-0.1,0.6-0.2,0.8-0.2c0.2,0.3,0.4,0.4,0.8,0.5c0.2,0,0.3,0.1,0.5,0.1
						c0.2,0,0.3,0,0.5,0c0.2,0,0.7-0.1,1.1-0.2l0.2,0c0.3,0,0.6-0.1,0.7-0.1c0.4,0,1-0.1,1.5-0.4c0.3-0.2,0.7-0.6,0.7-1.1
						c0-0.6-0.5-1-0.9-1.2c-0.4-0.1-0.7-0.2-1.2-0.2c-0.5,0-0.9,0.1-1.4,0.4c0,0-0.1,0-0.1-0.1c-0.1,0-0.2-0.1-0.3-0.1
						c-0.2-0.1-0.5-0.1-0.7-0.1c-0.1,0-0.3,0-0.4,0c-0.1,0-0.2,0-0.2,0c-0.1,0-0.2,0-0.2,0c-0.6-0.2-1.2-0.3-1.8-0.3
						c-0.6,0-1.2,0.1-1.9,0.3c-0.4,0.2-0.8,0.3-1.1,0.3c-0.2,0-0.4,0-0.6-0.1c-0.2-0.1-0.4-0.1-0.7-0.1c-0.6,0-1.1,0.2-1.5,0.4
						c-0.8,0.3-1.5,0.6-2.2,0.6c-0.1,0-0.3,0-0.4-0.1c-0.1,0-0.3,0-0.4,0c-0.6,0-1.1,0.2-1.5,0.5c-0.1,0-0.2,0.1-0.3,0.1l-0.5,0.2
						c-0.2,0.1-0.4,0.3-0.4,0.5c0,0.2,0.1,0.5,0.3,0.6l0.4,0.3c0.4,0.3,0.9,0.5,1.4,0.5c0.3,0,0.7-0.1,1-0.2c1-0.2,2-0.3,3.1-0.4
						c0.9-0.1,1.8-0.2,2.7-0.3c0.1,0,0.2,0,0.3,0c0.2,0,0.3,0,0.5,0C354.1,141.1,354.3,141.2,354.4,141.2z M382.8,139.7
						c0.1,0,0.1,0,0.2,0c0.8-0.1,1.8-0.6,1.7-2.3c0-0.1,0-0.3,0-0.4c0.1-1.5-0.4-2.1-1.9-2.3c-0.3,0-0.6,0-0.8,0l-0.3,0
						c-0.1,0-0.1,0-0.2,0c-0.1,0-0.2,0-0.3,0c-0.7,0-1.1,0.3-1.2,0.6c-0.1,0.1-0.1,0.2-0.2,0.4c-0.1-0.1-0.3-0.2-0.5-0.3
						c-0.2-0.1-0.5-0.3-0.9-0.3c-0.3,0-0.7,0.1-1.1,0.6c-0.3-0.1-0.6-0.3-0.9-0.3c-0.1,0-0.2,0-0.3,0c-0.2,0-0.5,0-0.8,0
						c0,0-0.1,0-0.1,0c-0.3-0.2-0.6-0.4-1-0.4c-0.1,0-0.1,0-0.2,0c-0.2,0-0.4-0.1-0.6-0.1c-0.6,0-1.2,0.3-1.5,0.9
						c-0.5,0.2-0.8,0.5-1.1,0.8c-0.2,0.3-0.4,0.8-0.2,1.2c0.2,0.5,0.6,0.8,1.1,0.9c0.6,0,1.1,0.1,1.8,0.1l0.4,0l0.1,0
						c0.4,0.1,0.9,0.2,1.2,0.3c0.3,0.4,0.7,0.7,1.2,0.7c0.3,0,0.6-0.1,0.9-0.4c0,0,0,0,0,0c0.2,0.1,0.3,0.1,0.5,0.1
						c0.2,0,0.4,0,0.6-0.1c0.1,0,0.2,0.1,0.2,0.1c-0.3,0.1-0.5,0.3-0.7,0.5c-0.3,0.4-0.4,0.8-0.2,1.3c0.5,1.1,2.6,1.4,3.5,1.5
						c0.1,0,1.2,0,1.2,0c0.2,0,0.3,0,0.5,0c0.3,0,0.6-0.2,0.8-0.3l0.4-0.2c0.2-0.1,0.3-0.3,0.4-0.5c0.1-0.2,0-0.4-0.1-0.6l-0.2-0.2
						l-0.1-0.2c-0.1-0.2-0.3-0.5-0.7-0.7l-0.4-0.2C382.9,139.8,382.8,139.7,382.8,139.7z M388.6,134.3c0.2,0.2,0.4,0.3,0.7,0.4
						l0.6,0.2c0.5,0.2,1.1,0.4,1.7,0.6c0.1,0.1,0.2,0.3,0.4,0.3c0.3,0.1,0.5,0.2,0.7,0.3c0.7,0.2,1.5,0.3,2.3,0.5
						c0.1,0,0.3,0.1,0.4,0.1c0.2,0,0.4,0,0.5-0.1c0.2,0.2,0.5,0.4,0.8,0.5c0.2,0,0.4,0,0.5,0l0.4,0.1c0.1,0,0.2,0,0.3,0h0
						c0,0,0,0,0,0c0.2,0,0.7,0,1-0.4c0.2-0.2,0.3-0.6,0.3-0.8c0-0.6-0.5-1.1-0.9-1.2c-0.4-0.2-0.8-0.3-1.2-0.4c0,0,0,0,0,0
						c0.6-0.1,1-0.6,1.1-1.2c0.1-0.5,0-1-0.3-1.4c-0.2-0.3-0.6-0.5-0.9-0.6l-2.1-0.3c-0.1,0-0.2-0.1-0.3-0.1h-0.3
						c-0.1,0-0.1,0-0.2,0c-0.1,0-0.2,0-0.2,0c-0.1,0-0.1-0.1-0.2-0.1c-0.6-0.3-1.2-0.4-1.7-0.5c-0.2,0-0.4-0.1-0.6-0.1
						c-1.2-0.4-2.4-0.7-3.6-1.1l-2.5-0.8c-0.3-0.1-0.6-0.2-0.9-0.2c-0.6,0-1,0.3-1.2,0.5c-0.2,0.3-0.3,0.6-0.3,1
						c0.2,0.9,0.9,1.2,1.2,1.3c0.6,0.3,1,0.5,1.3,0.5c0.7,0.1,1.4,0.4,2.2,0.7c0.2,0.1,0.5,0.2,0.7,0.3c-0.3,0.3-0.5,0.7-0.5,1.1
						C388,133.5,388.2,133.9,388.6,134.3z M396.4,143.6c0-0.5-0.5-1.3-1.2-1.3c-0.2,0-0.3,0-0.3-0.1c-0.1-0.5-0.4-0.8-0.7-1
						c-0.2-0.1-0.5-0.2-0.8-0.2c-0.4,0-0.7,0.1-0.9,0.3c-0.1,0.1-0.2,0.2-0.3,0.3c-0.1-0.1-0.1-0.2-0.3-0.3
						c-0.3-0.2-0.9-0.7-1.7-0.7c-0.1,0-0.3,0-0.4,0c-0.3,0.1-0.8,0.3-1,0.9c-0.2,0.5,0,1,0.4,1.4c0.1,0.1,0.2,0.2,0.4,0.3
						c-0.4,0.2-0.6,0.7-0.6,1c0,0.4,0.2,0.9,0.6,1.2c0.4,0.2,0.8,0.3,1.2,0.3c0.6,0,1.2-0.3,1.7-0.8c0.1-0.1,0.2-0.3,0.2-0.4
						c0.1,0.1,0.2,0.2,0.3,0.2c0.4,0.3,0.8,0.3,1,0.3l0.4,0l0.6,0c0.4,0,0.8-0.2,1.1-0.5C396.3,144.4,396.4,144,396.4,143.6z
						 M400.9,144.2c-0.1-1.3-1.1-1.4-1.6-1.4h0l-0.2-0.1c-0.3-0.5-0.9-0.9-1.6-0.9c-0.4,0-0.7,0.2-1,0.5c0,0-0.1,0.1-0.1,0.1
						l-0.1,0.2c-0.1,0.2-0.1,0.5,0,0.7l0.1,0.2c0.1,0.1,0.2,0.3,0.3,0.5c0.3,0.5,0.7,1.3,1.6,1.7c0.3,0.1,0.5,0.2,0.8,0.2
						c0.3,0,0.5,0,0.7-0.1C400.5,145.6,400.9,145,400.9,144.2z M471.1,188.1c0.2-0.3,0.4-0.6,0.4-1.1c0-1-0.7-1.9-1.8-2.1
						c0,0,0,0-0.1,0c-0.1,0-0.1,0-0.2,0c-0.6,0.1-1,0.4-1.2,0.8c-0.2,0.4-0.2,0.9,0.1,1.4c0.2,0.4,0.5,0.7,0.7,1l0.6,0.7
						c0.1,0.2,0.3,0.3,0.5,0.3c0,0,0,0,0.1,0c0.2,0,0.4-0.2,0.6-0.4l0.2-0.4L471.1,188.1z M473.5,193.1c0.1,0,0.3,0,0.4,0
						c0.6-0.1,0.8-0.5,1-0.8l0.1-0.1c0.1-0.2,0.2-0.4,0.1-0.6l0-0.2c-0.3-1-1.4-1.5-2.3-1.5c-0.3,0-0.5,0.1-0.8,0.2
						c-0.2,0.1-0.5,0.3-0.7,0.8c-0.1,0.4-0.1,0.8,0,1.1C471.8,192.7,472.6,193.1,473.5,193.1z M475.9,196c0.2-0.1,0.7-0.3,0.9-0.8
						c0.4-0.8,0-1.7-0.8-2.1c-0.2-0.1-0.5-0.2-0.7-0.2c-0.8,0-1.4,0.6-1.4,1.3c-0.1,0.8,0.4,1.5,1.2,1.8l0.1,0c0,0,0.1,0,0.1,0
						C475.5,196.2,475.8,196.1,475.9,196z M257.4,186.6c0-0.9,0.4-1.6,0.7-2c0.7-0.7,1.4,0,1.4,1.2c0,0.9-1.3,2.7-2.1,3.3
						C256.6,189.5,257.4,187.9,257.4,186.6z M258.7,171.1c-0.1,0-0.4-0.2-0.5-0.3c-0.5-0.7,0.1-1.4,0.3-2c0.1-0.2,0.2-0.3,0.4-0.4
						c0.2-0.1,0.4-0.1,0.6-0.1c0.1,0,0.2,0.1,0.2,0.2c0,0.2,0,0.4,0,0.6c0,0.2,0,0.3,0,0.4C259.3,170,259.7,170.9,258.7,171.1z
						 M261.7,195c0,0,0.2,0,0.2,0c0.4-0.1,1.6-0.3,1.7-1.6c0-0.6-0.1-1.1-0.5-1.7c-0.1-0.2-0.4-0.3-0.6-0.3c0,0-0.1,0-0.1,0
						c-0.9,0.1-2,1.6-1.9,2.4C260.6,194.6,261.2,195,261.7,195L261.7,195z M272.2,182.9c0.5,0,0.9-0.3,1.1-0.6
						c0.2-0.3,0.2-0.7,0.1-1c-0.1-0.3-0.4-0.5-0.8-0.6c0,0-0.1,0-0.1,0c-0.1,0-0.2,0-0.3,0.1l-0.1,0.1c-0.2,0.1-0.5,0.2-0.7,0.5
						c-0.2,0.3-0.3,0.7-0.1,1C271.4,182.7,271.8,182.9,272.2,182.9L272.2,182.9z M274.4,180.2c0.6-0.2,1.1-0.6,1.5-1.2
						c0.2-0.3,0.1-0.7,0-0.9c-0.1-0.2-0.5-0.4-0.7-0.4c0,0,0,0,0,0c-0.8,0.1-1.4,0.4-1.8,1c-0.3,0.4-0.1,0.8,0,0.9
						c0.1,0.2,0.3,0.3,0.5,0.4l0.1,0c0.1,0.1,0.2,0.1,0.3,0.1C274.2,180.2,274.3,180.2,274.4,180.2z"/>
					<path class="st0" d="M347.4,361.8c-0.2-1.3,4.1-2.2,4.4-1.7c0.4,0.9-0.5,2-2.3,2.4C348.3,362.6,347.6,363.1,347.4,361.8z
						 M344.3,366.3c-0.4,0-1,0.2-1.4,0.3c-0.2,0-0.3,0.1-0.3,0.1c-0.5,0.1-0.7,0.6-0.8,0.9l0,0.1c-0.1,0.2,0,0.4,0,0.5
						c0.1,0.2,0.3,0.3,0.7,0.3h0c0.6,0,2.3-1.2,2.3-1.8C344.8,366.5,344.7,366.3,344.3,366.3z M345.4,362.3c-0.2,0-0.4,0-0.6,0
						c-0.6,0.1-1.1,0.3-1.5,0.5c-0.1-0.1-0.2-0.1-0.3-0.2c-0.1-0.1-0.5,0-0.6,0c0,0,0.1-0.4,0.3-0.5c0.4-0.2,0.7-0.3,1.1-0.5
						c0.2-0.1,2.2-0.4,2.4-0.5c0.2-0.1,0.3-0.3-0.1-0.4c-0.2,0-3,0.6-3.1,0.5c-0.2-0.1-0.2-0.5-0.1-0.6c0.1-0.1,3-0.5,3.1-0.6
						c0.1,0,0.1-0.2,0.1-0.2c0-0.1-0.1-0.1-0.1-0.1c-0.8,0.2-3.4,0.3-4.2,0.4c-0.2,0-0.3,0-0.5-0.1c-0.1,0-0.3-0.2-0.3-0.3
						c0-0.1,0.2-0.3,0.2-0.3c0.4,0,0.8-0.1,1.2-0.1c0.2,0,0.5,0.2,0.7,0.2c0.2-0.1,0.3-0.5,0.2-0.7c-0.2-0.3-1.6-0.3-2-0.2
						c-0.3,0.1-1.5,0-2,0.1c-0.3,0-2.3,0-3.4-0.2c-1.9-0.3-5-0.8-6.5-1.4c-2.3-0.9-4.8-2-7.3-3.4c-1.5-0.8-3.6-1.9-4.9-2.9
						c-1.9-1.4-3.1-2.2-4.9-3.6c-1.5-1.1-3.5-3.1-5-4.3c-2-1.7-4-3.5-6-5.3c-3-2.6-5.5-5.6-8.5-8.3c-0.2-0.2-0.5-0.4-0.7-0.7
						c-0.9-1.1-1.7-2.2-2.6-3.3c-0.2-0.3-0.4-0.7-0.7-0.8c-0.9-0.2-1.1-0.9-1.3-1.7c-0.2-1-0.8-1.8-1.8-2.1
						c-0.5-0.2-0.9-0.4-1.2-0.8c-0.5-0.6-0.9-1.2-1.4-1.9c-0.2-0.3-0.4-0.6-0.3-1c0-0.4-0.1-0.6-0.4-0.8c-0.5-0.2-0.9-0.6-0.8-1.1
						c0.1-0.6-0.2-0.9-0.6-1c-0.3-0.1-0.4-0.3-0.4-0.6c0.1-0.5-0.2-0.9-0.7-1c-0.6-0.1-0.9-0.6-1.2-1c-1.2-1.9-2.4-3.7-3.4-5.7
						c-0.3-0.6-0.6-1.2-0.9-1.8c-1.2-2-2-4.2-2.9-6.3c-0.8-1.9-1.7-3.6-2.6-5.4c-0.1-0.3-0.5-0.4-0.5-0.8c-0.1-0.8-0.4-1.5-1-2.2
						c-0.2-0.2-0.2-0.5-0.3-0.7c-0.2-0.6-0.5-1.2-0.7-1.8c-0.4-1-1-2.1-1.4-3.1c-0.4-1.1-1.1-2.1-1.3-3.2c-0.1-0.7-0.5-1.2-0.9-1.8
						c-0.4-0.6-0.2-1.4-0.6-2.1c-0.4-0.7-0.7-1.4-0.9-2.1c-0.3-0.7-0.4-1.4-0.9-1.9c-0.6-0.6-0.1-1.5-0.5-2.1
						c-0.2-0.3-0.4-0.6-0.3-1c0-0.2-0.1-0.4-0.2-0.5c-0.7-0.8-0.9-1.8-1.2-2.7c-0.3-0.9-0.4-1.9-1-2.6c-0.1-0.1-0.2-0.4-0.2-0.5
						c0.1-0.5-0.1-0.6-0.5-0.7c-0.4,0-0.6-0.4-0.4-0.7c0.3-0.6,0.3-1.2,0.1-1.8c-0.6-1.6-0.7-3.3-1.6-4.9c-0.1-0.2-0.1-0.6-0.1-0.9
						c0-1.1-0.4-2.1-0.5-3.2c-0.1-0.5-0.3-1.1-0.5-1.5c-0.2-0.4-0.7-2-0.7-2.4c0-0.9,0-1.9-0.5-2.7c-0.3-0.5-0.6-1.1-0.4-1.6
						c0.2-0.5,0.2-1.1-0.1-1.6c-0.2-0.4-0.3-0.9-0.2-1.3c0-0.3,0-0.6-0.1-0.9c-0.5-1.1,0-2.4-0.7-3.4c-0.1-0.1-0.1-0.3-0.1-0.5
						c0-0.3-0.1-0.6-0.1-0.9c-0.2-1.5-0.6-3-0.6-4.6c0-1-0.2-2.1-0.3-3.1c-0.1-3.4-0.1-6.8-0.2-10.2c-0.1-3.8-0.2-7.6-0.2-11.4
						c0-0.6-0.1-1.3,0-1.9c0.2-0.9,0.1-1.7,0.2-2.6c0-0.5,0-1,0.1-1.5c0.3-2.1,0.4-4.1,0.5-6.2c0-0.5,0-1.1,0.1-1.6
						c0.1-1.1,0.2-2.2,0.3-3.2c0-1,0-2,0.2-3c0.1-0.3,0-0.6,0-0.9c0-0.1,0.1-1.2,0.2-1.6c0.2-1.2,0.4-2.4,0.5-3.6
						c0.1-0.8,0.2-1.5,0.5-2.2c0.3-1,0.6-2,0.9-3c0.3-1.1,0.6-2.3,1.1-3.4c0.5-1.1,0.6-2.3,1.1-3.4c0.1-0.2,0.1-0.4,0.1-0.7
						c-0.1-0.7,0.2-1.2,0.6-1.7c0.2-0.2,0.3-0.4,0.2-0.6c-0.2-0.4,0-0.7,0.2-1c0.7-1.1,1.4-2.1,1.7-3.4c0-0.2,0.2-0.3,0.3-0.4
						c0.4-0.3,0.6-0.8,0.5-1.3c-0.1-0.5,0.1-0.8,0.4-1.1c0.5-0.5,1-1,1.2-1.8c0.1-0.2,0.2-0.4,0.3-0.6c0.4-0.6,0.7-1.1,1.1-1.7
						c1.1-1.8,2.1-3.6,3.7-5c0.1-0.1,0.2-0.3,0.3-0.4c0.8-1,1.4-2.1,2.3-3c0.4-0.4,0.8-0.9,1.2-1.4c1.3-1.6,2.7-3.1,4.2-4.6
						c1.3-1.2,2.8-2.1,4-3.5c0.9-1,2-1.7,3.1-2.5c0.3-0.2,0.5-0.3,0.8-0.5c0.2-0.1,0.3-0.3,0.2-0.5c-0.1-0.1-0.2-0.1-0.4-0.1
						c-0.5,0.1-1,0.3-1.6,0.5c-0.7,0.3-1.4,0.6-2.1,0.3c-0.9-0.4-1.7-0.1-2.5,0.3c-1.5,0.8-2.9,1.7-4.2,2.7
						c-0.7,0.6-1.5,1.1-2.3,1.4c-0.7,0.3-1.3,0.7-1.8,1.1c-0.5,0.4-0.9,0.7-1.4,1.1c-0.6,0.4-1.1,0.9-1.6,1.5
						c-0.2,0.3-0.5,0.5-0.8,0.7c-0.9,0.7-1.9,1.3-2.6,2.1c-1,1.2-2,2.3-3,3.5c-0.2,0.2-0.4,0.5-0.7,0.7c-1,0.8-1.9,1.8-2.8,2.7
						c-0.4,0.5-0.8,1-1.4,1.3c-0.8,0.5-1.4,1.1-1.9,1.9c-0.6,0.8-1.2,1.7-1.9,2.4c-1.4,1.4-2.6,2.9-3.7,4.5
						c-0.3,0.4-0.5,0.8-0.8,1.1c-1.2,1.3-2.4,2.7-3.4,4.2c-1.4,2-2.5,4.2-3.9,6.2c-0.8,1.2-1.5,2.5-2.4,3.6c-1,1.4-2,2.7-2.7,4.2
						c-0.9,1.8-2.1,3.5-3.3,5.1c-0.2,0.3-0.4,0.6-0.6,0.9c-0.4,0.6-0.7,1.3-1.1,1.9c-0.6,1-1.3,2-1.6,3.1c0,0.2-0.2,0.4-0.3,0.6
						c-0.5,0.5-0.7,1.1-1,1.8c-0.6,1.3-1.2,2.6-1.8,4c-0.1,0.3-0.3,0.6-0.3,0.9c0,0.7-0.4,1.4-0.5,2.1c-0.1,0.5-0.4,0.9-0.6,1.4
						c-0.2,0.3-0.4,0.6-0.7,0.8c-0.4,0.3,0.2,0.7-0.2,1c-0.3,0.4-0.4,0.9-0.6,1.4c-0.2,0.6-0.6,1.2-0.7,1.9c-0.8,1.2-1,2.7-1.7,4
						c-0.7,1.5-0.8,3.1-1.7,4.5c-0.2,1.4-1,2.5-1.2,3.9c-0.3,1.7-0.1,3.2-0.6,4.8c-0.3,1-0.4,2-0.9,3c-0.1,0.2-0.1,0.6-0.1,0.9
						c0,0.5,0,1-0.2,1.5c-0.4,1.2-0.5,2.4-0.7,3.6c-0.1,0.4-0.1,0.9-0.2,1.3c-0.3,1-0.6,2-0.7,3c-0.2,1.3-0.4,2.6-0.3,3.9
						c0,0.1,0,0.3,0,0.4c-0.4,0.8-0.3,1.6-0.3,2.4c-0.1,0.8-0.1,1.6-0.3,2.4c-0.1,0.2-0.1,0.4,0,0.5c0.5,0.6,0.2,2.6,0.2,3.2
						c0,0.3,0,0.5,0,0.8c0.1,1.9,0.2,3.8,0.2,5.7c0,0.5,0,1.1,0.2,1.6c0.2,0.6,0.2,1.3,0,1.9c-0.2,0.5-0.3,1-0.1,1.5
						c0.1,0.2,0,0.4-0.1,0.6c-0.3,0.4-0.4,1-0.3,1.4c0.2,0.6,0.2,1.2,0.2,1.9c0.1,0.7,0.1,1.4,0.3,2.1c0.2,0.5,0.3,1.1,0.3,1.7
						c-0.1,0.6,0,1.3,0.4,1.8c0.2,0.3,0.2,0.6,0.2,0.9c-0.1,1.1,0.2,2.2,0.5,3.3c0.2,0.7,0.5,1.5,0.6,2.2c0.2,1.7,0.9,3.2,1.2,4.9
						c0.3,1.3-0.5,2.6,0.4,3.8c0.2,0.2,0.3,0.5,0.2,0.8c0,0.2,0,0.4,0.1,0.5c0.3,0.4,0.3,0.7,0.1,1.1c-0.1,0.2-0.1,0.3,0,0.5
						c0.2,0.3,0.2,0.7,0.4,0.9c0.3,0.3,0.2,0.8,0.4,1.1c0.2,0.3,0.4,0.7,0.2,1.2c0,0.1,0,0.2,0,0.2c0.6,0.4,0.4,1.1,0.7,1.6
						c1.5,2.5,2.5,5.2,3.9,7.7c0.2,0.4,0.4,0.8,0.7,1.1c0.6,0.7,1.6,3.3,1.9,3.5c0.3,0.2,0.4,0.4,0.5,0.8c0,0.1,0.1,0.3,0.1,0.4
						c0.1,0.5,1.8,4.2,2.3,4.8c0.2,0.3,0.6,0.5,0.7,1c0.1,0.7,0.5,1.2,0.8,1.9c0.1,0.3,0.3,0.5,0.1,1c-0.2,0.5,0.1,1.1,0.7,1.3
						c0.2,0.1,1.8,3.3,2.7,4.3c0.1,0.1,0.2,0.2,0.2,0.3c-0.1,0.5,0.3,0.7,0.5,1c0.2,0.3,0,0.8,0.3,1.1c0.1,0.2,0.2,0.4,0.3,0.6
						c0.1,0.2,2,3.4,2.1,3.5c0.3,0.4,1.5,0.5,1.6,0.8c0.4,1.3,1.2,2.3,1.9,3.4c0.2,0.3,0.4,0.5,0.7,0.6c0.6,0.2,0.9,0.6,1.1,1.1
						c0.5,1,1.1,1.9,1.8,2.7c0.5,0.6,0.8,1.3,1.5,1.7c0.2,0.1,0.3,0.4,0.5,0.6c0.3,0.4,0.7,0.9,1,1.3c1.7,2,3.4,3.5,5.1,5.5
						c0.6,0.7,1.2,1.4,1.8,2c1.4,1.2,2.7,2.4,4.2,3.4c0.6,0.4,1.2,0.9,1.7,1.3c1,0.9,2,1.9,3,2.7c1.8,1.4,3.7,3.3,5.6,4.6
						c2.5,1.7,5.2,2.7,7.8,4.2c4.3,2.4,9,5.5,13.7,7c0.2,0.1,0.4,0.2,0.6,0.2c1.3,0.1,2.1,0.6,3.3,1c2,0.7,4.2,1.3,6.3,1.7
						c1.2,0.2,2.5,0.3,3.8,0.5c2,0.3,3.9,0.6,5.9,0.6c0.4,0,0.9,0.1,1.3,0.2c0.6,0,1.2,0.2,1.7,0c0.8-0.3,1.5-0.2,2.3-0.2
						c1.6,0.1,3.2,0.1,4.7,0.2c1.2,0.1,2.3-0.5,3.5-0.6c1.7-0.2,4.3-0.4,5.9-1.2c0.1,0,0.2,0,0.3,0c0.9,0.1,1.8-0.2,2.7-0.3
						c0.9-0.1,1.7-0.6,2.6-0.8c0.5-0.1,2.8-0.5,3.3-0.6c1.5-0.5,3-1,4.5-1.5c0.7-0.2,1.3-0.6,2-0.8c0.2-0.1,0.2-0.3,0.1-0.4
						c-0.3-0.2-0.6-0.4-1-0.3c-0.3,0.1-0.7-0.2-0.9-0.2c-1,0-0.6,0.7-0.7,0.9c-0.2,0.3-0.5,0.3-0.8,0.1c-0.1-0.1-0.2-0.1-0.3-0.2
						c-0.2-0.1-0.3-0.1-0.4,0.1c-0.1,0.2-0.1,0.1-0.2,0.3c-0.1,0.2-0.3,0.4-0.5,0.4c-0.5-0.1-0.9,0-1.3,0.1
						c-0.4,0.1-2.5-0.2-2.9,0.1c-0.1,0-0.5-0.3-0.5-0.4c0-0.1,0.3-0.4,0.3-0.4c0.7-0.1,3-0.7,3.6-0.7c0.1,0,0.2,0,0.2-0.1
						c0.4-0.7,1.4-0.3,1.9-0.9c0.5-0.6,4.1-1,4.5-1.1c0.1,0,1.7-0.7,1.8-0.7c0,0,0.1-0.1,0.1-0.1c0-0.1,0-0.2-0.1-0.2
						c-1.1,0.1-6.3,0.7-6.8,0.7c-0.3,0-0.7,0.1-1,0.3c-0.1,0.1-0.2,0.2-0.4,0c-0.2-0.2-0.3-0.4-0.2-0.6c0.2-0.3,0.4-0.5,0.5-0.8
						c0.1-0.3,2.6-0.9,2.8-0.9c0.7-0.3,3.2-0.1,3.2,0c0.1,0.1,0.2,0.4,0.5,0.4h0c0.2,0,0.4-0.1,0.6-0.2c0.2,0.1,0.4,0.1,0.8,0.1
						c0.1,0,0.1,0,0.2,0c1.1,0,1.5-0.4,1.9-0.7c0.1-0.1,0.4-0.4,0.4-0.4l0-0.1C346.3,362.3,345.6,362.3,345.4,362.3z M244.2,166.3
						c0.3-0.8,0.7-1.8,1.6-2.5l0.1-0.1c0.1-0.1,0.2-0.2,0.2-0.2c0.1-0.6,0.6-1,0.9-1.2c0.1-0.1,0.2-0.1,0.2-0.2
						c0.1-0.1,0.3-0.2,0.4-0.2c0,0-0.1-0.1-0.1-0.1c-0.4-0.5-0.1-1-0.1-1.2c0-0.1,0-0.1,0.1-0.2c0.4-0.6,0.8-0.9,1.4-1
						c0.1,0,0.2,0,0.3,0c0.5,0,0.9,0.3,1.1,0.8c0.1,0.4,0,0.9-0.4,1.2c-0.2,0.2-0.5,0.4-0.7,0.5c-0.1,0.1-0.2,0.2-0.4,0.3
						c0.2,0.2,0.3,0.5,0.3,0.6c0.1,0.4-0.2,0.8-0.3,0.9c0,0-0.1,0.2-0.1,0.2c0,0.2-0.1,0.4-0.3,0.7c0,0.1,0.1,0.2,0.1,0.3
						c0,0.2-0.1,0.5-0.3,0.6c-0.2,0.2-0.2,0.4-0.2,0.9l0,0.4c0,0.8-0.5,1.4-0.9,1.8c-0.3,0.4-0.7,0.4-0.8,0.4c0,0-0.1,0-0.1,0
						c-0.2,0-0.5-0.1-0.6-0.2l0,0c-0.1-0.1-0.2-0.2-0.2-0.3c-0.1-0.3-0.2-0.4-0.2-0.4c0,0-0.2-0.1-0.3-0.1
						C244.2,167.6,243.9,167,244.2,166.3z M241.7,170.8c0.1-0.2,0.2-0.5,0.3-0.8c0-0.1,0.1-0.1,0.1-0.2c0.2-0.4,0.5-1,1.3-1.2
						c0.1,0,0.1,0,0.2,0c0.3,0,0.5,0.1,0.7,0.3c0.1,0.1,0.2,0.2,0.2,0.3c0.1,0.1,0.3,0.3,0.5,0.5c0.2,0,0.5,0.1,0.7,0.3
						c0.3,0.3,0.3,0.6,0.3,0.8c0,0.3-0.3,0.8-0.7,0.9c-0.1,0.1-0.3,0.1-0.4,0.1c0,0-0.1,0-0.1,0c0,0.2-0.1,0.3-0.2,0.5
						c-0.2,0.4-0.5,0.6-0.7,0.8l-0.1,0.1c-0.1,0.1-0.3,0.2-0.5,0.2c0,0-0.1,0-0.2,0c-0.2,0-0.4-0.1-0.6-0.2
						c-0.4-0.2-0.6-0.7-0.5-1.1c0,0,0,0,0,0c0,0-0.1-0.1-0.1-0.1C241.6,171.7,241.5,171.2,241.7,170.8z M234.7,182.6
						c0-0.1,0.1-0.1,0.1-0.2c0.2-0.6,0.7-0.9,1.2-0.9c0.4,0,0.7,0.2,0.9,0.5c0.2,0.4,0.3,0.9,0,1.3c-0.1,0.2-0.2,0.5-0.4,0.7
						c-0.2,0.3-0.4,0.4-0.5,0.5c-0.1,0.1-0.3,0.2-0.5,0.2c-0.1,0-0.2,0-0.3-0.1l-0.1,0c-0.3-0.1-0.5-0.3-0.6-0.6
						C234.4,183.3,234.6,182.9,234.7,182.6z M224.7,206.3c0.1-0.2,0.4-0.5,0.8-0.6c0,0,0,0,0,0c0.5,0,0.7,0.2,0.9,0.4
						c0.1,0.1,0.3,0.4,0.1,0.9c0,0,0,0.1-0.1,0.3c0.1,0,0.2-0.1,0.2-0.1c0.1,0,0.2,0,0.3,0c0.5,0,0.8,0.3,0.9,0.4
						c0.2,0.3,0.2,0.6,0.1,0.9c0,0.1,0,0.2-0.1,0.2c-0.1,0.4-0.2,0.8-0.5,1.2c-0.2,0.3-0.6,0.5-0.9,0.5c-0.3,0-0.5-0.1-0.7-0.3
						c-0.1-0.1-0.2-0.3-0.3-0.5c0,0-0.1,0-0.1,0.1c-0.1,0.1-0.2,0.1-0.4,0.1c-0.2,0-0.4-0.1-0.5-0.2l-0.1-0.1
						c-0.1-0.1-0.2-0.3-0.3-0.5c-0.1-0.5-0.1-0.9,0.1-1.4c0.2-0.4,0.4-0.7,0.6-1.1L224.7,206.3z M221,204.9c0.5-0.8,0.7-1.6,1-2.5
						c0.1-0.3,0.1-0.6,0.2-0.8c0.1-0.3,0.3-0.5,0.5-0.7c0.2-0.1,0.5-0.2,0.7-0.2c0.1,0,0.2,0,0.3,0.1c0.4,0.1,0.6,0.5,0.6,0.6
						c0.1,0.3,0.1,0.5,0.1,0.6c0,0.1,0,0.1,0,0.2c0,0.1-0.1,0.2-0.1,0.2c-0.1,0.1-0.1,0.3-0.1,0.5c-0.1,0.4-0.2,0.9-0.5,1.4l0,0
						c0,0,0,0.1,0.1,0.2c0,0.2,0.1,0.4,0.1,0.7c-0.1,1-0.6,1.5-1.6,1.5h-0.1c-0.5,0-0.9-0.2-1.1-0.6
						C220.8,205.7,220.8,205.3,221,204.9z M219.6,210.5l0-0.1c0-0.1,0.1-0.3,0.1-0.5c0.1-0.4,0.5-0.6,0.6-0.6l0.1-0.1
						c0.1-0.1,0.3-0.1,0.4-0.1c0.1,0,0.1,0,0.2,0c0.2,0,0.4,0.2,0.4,0.3l0.1,0.2c0,0,0.2,0.2,0.2,0.5c0,0.2,0.2,0.8-0.2,1.4
						c-0.1,0.2-0.3,0.4-0.4,0.4l-0.2,0.1c-0.1,0.1-0.2,0.1-0.4,0.1c-0.2,0-0.4-0.1-0.6-0.3l-0.1-0.1c-0.1-0.1-0.2-0.3-0.3-0.5
						c-0.1-0.1-0.1-0.3-0.1-0.4C219.6,210.8,219.6,210.6,219.6,210.5z M216.7,218.8c0,0,0.1-0.5,0.1-0.5c0.1-0.6,0.6-2.2,1.6-2.2
						c0.3,0,0.5,0.1,0.7,0.3c0.5,0.5,0.9,1.2,0.9,2.1c0.1,0.8-0.4,1.5-1.1,1.7c-0.1,0-0.1,0-0.1,0c0,0,0.1,0.1,0.1,0.1l0.1,0.1
						c0.1,0.2,0.1,0.5,0,0.7c-0.4,0.6-0.8,0.9-1.3,1.1c0,0-0.1,0-0.2,0c0,0-0.1,0-0.1,0c-0.5,0-0.9-0.5-1-0.9
						c-0.1-0.9,0.4-1.3,0.7-1.4C216.7,219.7,216.7,219.2,216.7,218.8z M212.7,240C212.7,240,212.7,239.9,212.7,240
						c0-0.2,0-0.3,0-0.5c0,0,0-0.2,0-0.2c0-0.4,0-1.4,1-1.8c0.1,0,0.2-0.1,0.4-0.1c0.1,0,0.1,0,0.2,0c0.2,0.1,0.6,0.2,0.8,0.5
						c0.4,0.7,0.4,1.5-0.1,2.3c0,0,0,0,0,0c0.1,0.3,0.2,0.6,0.2,0.9c-0.1,0.8-0.6,1.3-1.4,1.4c0,0-0.1,0-0.1,0c-0.1,0-0.1,0-0.2,0
						l0,0c-0.6-0.1-1.1-0.7-1.1-1.4C212.3,240.6,212.4,240.3,212.7,240z M213.5,247.7C213.5,247.7,213.5,247.7,213.5,247.7
						c-0.2,0-0.3,0-0.4,0l0,0c-0.3-0.1-0.8-0.4-1-1.3c-0.1-0.5,0.1-1,0.4-1.3c0.2-0.3,0.6-0.4,0.9-0.4c0,0,0.2,0,0.2,0
						c0.4,0.1,0.9,0.4,1.1,0.9c0.2,0.6-0.1,1.2-0.2,1.4C214.2,247.4,213.9,247.6,213.5,247.7z M217.4,277.7l0,0.2
						c0,0.2-0.1,0.2-0.1,0.3c-0.1,0.3-0.5,0.6-0.9,0.6h0c-0.5,0-0.8-0.2-1-0.5c-0.3-0.5-0.5-1-0.6-1.4c-0.2-0.5,0-1.1,0.5-1.4
						c0.2-0.1,0.4-0.2,0.7-0.2c0.4,0,0.7,0.2,0.9,0.4c0.4,0.5,0.6,1.1,0.6,1.7C217.5,277.6,217.5,277.6,217.4,277.7z M231.4,315.6
						c0,0.2,0,0.4-0.1,0.6c-0.1,0.3-0.4,0.4-0.5,0.5c-0.1,0.1-0.3,0.2-0.5,0.2h-0.1c-0.5,0-0.9-0.4-1-0.8c0,0,0-0.1,0-0.2
						c0-0.2-0.1-0.5-0.1-0.8c-0.1,0-0.2,0-0.3,0c-0.4,0-0.8-0.2-1.1-0.6c-0.5-0.7-0.5-1.4-0.5-2c0-0.3,0-0.5-0.1-0.7
						c0,0,0-0.1,0-0.1l0-0.3c0.1-0.3,0.1-0.6,0.2-0.9c0.1-0.5,0.6-0.8,0.9-0.8c0,0,0.2,0,0.2,0c0.4,0,0.8,0.2,1,0.5
						c0.2,0.4,0.7,0.9,0.4,1.7c-0.2,0.7-0.1,1,0.1,1.4c0.2,0.2,0.2,0.5,0.2,0.8c0,0,0.1,0,0.1,0c0.4,0.1,0.7,0.5,0.9,0.8
						c0.1,0.2,0.1,0.4,0.1,0.6C231.4,315.4,231.4,315.5,231.4,315.6z M236.6,324.7c-0.2,0.2-0.5,0.3-0.8,0.3c-0.4,0-0.8-0.2-1.2-0.9
						c-0.1-0.1-0.1-0.3-0.2-0.4c-0.2-0.4-0.6-0.9-0.6-1.5c-0.6-0.2-1-0.7-1.2-1.1c0-0.1-0.1-0.2-0.2-0.3c-0.4-0.5-0.8-1.1-0.6-2
						c0.1-0.3,0.3-0.7,0.7-0.8c0.1,0,0.3-0.1,0.5-0.1c0.3,0,0.6,0.2,0.8,0.4c0.5,0.8,0.9,1.6,1.4,2.4c0.2,0.1,0.3,0.2,0.4,0.3
						c0,0,0,0.1,0.1,0.1c0.7,0.5,1,1.3,1.3,2.1C237.1,323.5,237.1,324.3,236.6,324.7z M236.7,306.4c-0.1,0-0.1,0-0.2,0
						c-0.1,0-0.2,0-0.3,0l-0.1,0l-0.1-0.1c-0.2-0.1-0.6-0.2-0.8-0.7c0,0,0,0,0,0c-0.1,0-0.2,0.1-0.3,0.1c0,0-0.1,0-0.1,0
						c-0.1,0-0.6,0-1-0.4c-0.2-0.3-0.5-0.6-0.7-0.8l-0.6-0.8c-0.2-0.3-0.4-0.6-0.4-0.9c-0.5-0.2-0.8-0.5-1-0.9
						c-0.5-0.1-0.9-0.5-0.9-0.9c0-0.3,0-0.6,0-0.9c-0.4-0.2-0.7-0.5-0.9-0.9c-0.2-0.5-0.4-0.9-0.6-1.4l-0.1-0.2
						c-0.4-0.9-0.8-1.7-1.1-2.6c-0.3-0.8-0.6-1.6-1-2.3c0,0-0.3-0.7-0.4-0.9c-0.1-0.3-0.2-0.5-0.2-0.8c-0.4-1.8-0.9-3.6-1.3-5.3
						c-0.1-0.2-0.1-0.4-0.2-0.5c-0.3-0.4-0.6-1-0.7-1.6c0-0.1-0.1-0.3-0.3-0.5c-1.2-1-1.2-2.5-1.1-3.4c0-0.4,0-0.6-0.1-0.8
						c-0.5-0.7-0.6-1.6-0.3-2.4c0.1-0.1,0.1-0.3-0.1-0.6c-0.1-0.1-0.2-0.3-0.3-0.4c-0.1-0.2-0.2-0.3-0.3-0.4c-1-1.4-1.4-2.8-1.2-4.3
						c0-0.3,0-0.6-0.1-0.8c-0.3-0.7-0.5-1.5-0.6-2.2c-0.2,0.3-0.5,0.4-0.8,0.4c-0.2,0-0.3,0-0.4-0.1c-0.4-0.2-0.6-0.5-0.8-0.8
						c-0.2-0.6-0.3-1.3-0.1-2c0-0.2,0.1-0.3,0.3-0.5c-0.1-0.1-0.2-0.1-0.3-0.2c-0.2-0.2-0.4-0.4-0.4-0.9c0-0.3,0.1-0.5,0.1-0.8
						c0-0.3,0.4-0.8,0.9-0.8c0,0,0.1,0,0.2,0c0.2,0.1,0.6,0.2,0.8,0.5c0-0.4,0-0.7,0-1.1v-0.2c0-0.3,0-0.7,0-1
						c0-0.3-0.1-0.5-0.1-0.7c-0.2-1.3-0.3-2.6-0.2-3.9c-0.2-0.7-0.1-1.4,0-1.9c0-0.3,0.1-0.5,0.1-0.6c0-0.3,0-0.6,0-0.9
						c0-0.5,0-1,0.1-1.5c0.1-0.7,0.1-1.1-0.2-1.5c-0.5-0.7-0.5-2.9-0.3-3.5c0.2-0.4,0.1-0.8,0.1-1.3l0-0.1c0-0.3,0-0.7,0-1
						c0-0.3,0-0.5,0-0.7c0-0.8,0-1.7,0.7-2.5c-0.5-0.8-0.2-1.6-0.1-2.1l0.1-0.2c0.3-1,0.3-1.8,0.2-2.6c-0.1-0.4-0.3-1.7,0.8-2.6
						c-0.4-0.8-0.5-1.3-0.9-1.1c-0.1,0-0.2,0.1-0.3,0.1c-0.1,0.3-0.2,0.7-0.7,0.9c-0.2,0.1-0.3,0.1-0.4,0.1c-0.4,0-0.7-0.2-1-0.5
						c0,0.2-0.1,0.4-0.2,0.6c-0.3,0.6-0.6,1.1-0.8,1.7c0.2,0.2,0.4,0.4,0.4,0.7c0.1,0.3-0.1,0.7-0.4,0.9c0,0.2-0.1,0.4-0.3,0.6
						c-0.2,0.3-0.5,0.4-0.8,0.4c-0.5,0-0.9-0.3-1-0.7c0-0.1,0-0.2-0.1-0.2c-0.1-0.3-0.4-0.9,0-1.6c0.1-0.1,0-0.4,0-0.6
						c-0.1-0.8,0.1-1.4,0.2-2l0.1-0.5c0.1-0.8,1.3-1.5,1.2-1.7c-0.4-0.5-0.3-1.1-0.2-1.7c0-0.1,0-0.1,0-0.2c0-0.3,0.1-0.8,0.5-1.2v0
						c-0.1-0.7,0.2-1.2,0.3-1.6l0.1-0.2c0.2-0.4,0.6-0.6,1-0.6c0.6,0.1,0.9,0.5,1,0.9c0,0.2,0,0.3,0,0.6v0.3c0.1,0.2,0,0.6-0.1,0.9
						c-0.1,0.4-0.2,0.7-0.1,0.9c0.1,0.4,0,0.8-0.4,1.2c-0.1,0.3-1,1.1-0.9,1.1c0.2,0.1,0.4,0.3,0.5,0.4c0.1-0.1,0.1-0.2,0.2-0.3
						c0.2-0.3,0.6-0.4,0.9-0.4c0.1,0,0.1,0,0.2,0c0.2-0.4,0.6-0.6,0.9-0.6h0c0.7,0,0.9,0.5,1,0.7c0,0,0.2,0.1,0.2,0
						c0-0.7,0.5-1,0.7-1.2c0.1-0.1,0.1-0.1,0.2-0.1c0,0,0.1-0.1,0.1-0.1c0,0,0,0,0-0.1c-0.5-0.9-0.3-1.8-0.2-2.2l0.2-0.9
						c0.2-0.8,0.4-1.7,0.6-2.6c0.1-0.3,0.2-0.6,0.4-0.9c0.2-0.5,0.4-1,0.5-1.5c0-0.2,0.1-0.4,0.1-0.5c0-0.2,0.1-0.3,0.1-0.5
						c0.2-1.1,0.4-1.7,1.1-2.6c0-0.1,0.1-0.1,0.1-0.3c0-0.4,0.1-0.9,0.2-1.4c0.1-0.3,0.3-0.7,0.6-0.9c0,0,0,0,0,0
						c-0.1-0.2-0.4-0.8-0.1-1.4c0.2-0.5,0.7-0.8,1.1-0.9c0.1,0,0.3-0.1,0.4-0.1c0,0,0.2,0,0.2,0c0.1,0,0.3,0,0.4,0.1
						c0.3,0.1,0.4,0.3,0.5,0.6c0.1,1.1-0.4,1.6-0.7,1.8c0,0.1-0.1,0.1-0.1,0.1c0.1,0.2,0.2,0.4,0.1,0.7l-0.4,1.8
						c-0.2,1-0.4,2-0.6,2.9c-0.2,1.1-0.4,2.3-0.6,3.4l-0.2,1.3c0,0.2-0.1,0.5,0,0.6c0.3,0.7,0.3,1.4-0.1,2c0.1,0.3,0.1,0.5,0.1,0.8
						c-0.1,0.4-0.4,0.7-0.8,0.9c0,0.1,0,0.1,0,0.2c0.1,0,0.2,0.1,0.3,0.1c0.1,0.1,0.5,0.3,0.5,0.8c0.1,1,0.2,2.1,0.3,3.2l0.1,0.7
						c0,0.5,0,1.2-0.3,1.8c0,0.1,0,0.3,0,0.5c0,0.5,0,0.9,0,1.3c0,1,0.1,2.1,0.1,3.1c0.1,0.7,0,1.4-0.1,2.2c0,0.1,0,0.1,0,0.2
						c0,0.3-0.1,0.4,0,0.6c0.1,0.4,0.1,1-0.5,1.5c0,0,0,0.1,0,0.2c0.1,0.4,0.1,1,0.2,1.6l0,0.5c0.1,0.7,0.1,1.6,0.2,2.1
						c0.1,0.4,0.1,0.8,0,1.2c0.2,0.2,0.4,0.5,0.5,0.8c0,0.4-0.1,0.7-0.3,1c-0.2,0.2-0.1,0.4,0.1,1.1l0.1,0.4
						c0.3,0.8,0.2,1.2-0.2,1.7c0.4,0.5,0.3,1.2,0.3,1.4c0,0.1,0,0.3,0,0.4l0,0.2c0,0.2,0,0.3,0,0.5c0.3,0.1,0.5,0.3,0.7,0.5
						c0.2,0.4,0.1,0.8,0,0.9c0,0-0.1,0.1-0.1,0.2c-0.1,0.4-0.6,0.7-0.8,0.8c-0.1,0.4-0.1,0.7-0.4,1.1l0,0c0,0,0,0.1,0,0.2
						c0,0.1,0,0.1,0,0.2c0.1,0,0.1,0,0.2,0c0.1,0,0.1,0,0.2,0c0.6,0,1.1,0.4,1.2,0.9c0.1,0.6,0.3,1.2,0.3,1.9
						c0.1,0.4-0.1,0.9-0.6,1.2c0.9,0.1,0.9,1,0.9,1.6c0,0.2,0,0.4,0,0.6c0,0,0,0.2,0,0.2c0,0.3-0.1,0.8-0.5,1.2l-0.1,0.1
						c-0.1,0.1-0.3,0.2-0.5,0.2c0,0,0,0,0,0c-0.1,0.5-0.2,1.1-0.4,1.7c-0.2,0.6-0.1,0.9,0.3,1.2c0.2,0.2,0.3,0.3,0.4,0.5
						c0.1,0.1,0.2,0.2,0.2,0.2c0.5,0.3,0.9,0.8,1,1.4c0.1,0.6,0.2,1.1,0.4,1.6c0.3,0.8,0.3,1.7-0.1,2.5c0.4,0.3,0.7,0.7,0.7,1.2
						c0,0.2,0.1,0.4,0.1,0.4c0.5,0.2,0.7,0.9,0.5,1.4c0.4,0.2,0.8,0.6,0.9,1.3c0,0.1,0.1,0.3,0.2,0.4c0.4,0.1,0.8,0.3,0.9,0.7
						c0,0,0,0.1,0.1,0.1c0.1,0.3,0.2,0.6,0.2,1c0.3,0.2,0.5,0.5,0.5,0.8c0,0.2,0.1,0.7-0.2,1.1c0.1,0.1,0.1,0.2,0.2,0.3
						c0.3,0.5,0.4,1,0.5,1.4c0.1,0.2,0.1,0.5,0.2,0.8c0,0,0.1,0.1,0.2,0.2c0.2,0.2,0.5,0.6,0.5,1.2c0,0.1,0,0.1,0,0.2
						c0,0.1,0,0.3,0,0.6c-0.1,0.3-0.2,0.8-0.9,0.9c0,0,0,0,0,0c-0.1,0-0.1,0.1-0.1,0.3c-0.1,0.3-0.1,0.6-0.1,0.9c0.1,0,0.1,0,0.2,0
						c0.3,0,0.5,0.1,0.7,0.3c0.3,0.3,0.4,0.8,0.3,1.1c0,0.2-0.1,0.4-0.1,0.5c0.6,0.1,0.9,0.4,1,1.2c0,0.1,0,0.2,0,0.2
						c0.1,0.2,0.1,0.5,0.1,0.7c0,0.3,0.1,0.4,0.2,0.4c0.2,0.1,0.5,0.5,0.6,1c0.2,1,0.7,1.8,1.1,2.6c0.2,0.3,0.2,0.6,0.3,0.9
						c0.2-0.1,0.4-0.2,0.6-0.2c0,0,0.2,0,0.2,0c0.5,0.1,1,0.7,1,1.2v0.1C237.9,305.1,237.9,306.1,236.7,306.4z M231.2,284
						c0-0.7,0.5-1,0.9-1.1c0,0,0.1,0,0.2,0c0.4,0,0.6,0.2,0.7,0.2c0.6,0.4,0.9,1,0.8,1.7c0,0.4-0.3,0.8-0.6,0.9
						c-0.1,0.1-0.3,0.1-0.5,0.1c-0.2,0-0.4,0-0.5-0.1C231.7,285.5,231.2,285.1,231.2,284z M236.1,280.8c0.1-0.6,0.6-1,1.2-1
						c0.1,0,0.2,0,0.2,0c0.6,0.2,1,0.7,1,1.4c0,0.6-0.6,1.2-1.2,1.2c-0.2,0-0.4,0-0.5-0.1C236.3,282,236,281.4,236.1,280.8z
						 M246.8,298.7c-0.2,0.1-0.3,0.1-0.5,0.1c-0.5,0-0.9-0.3-1.1-0.7c-0.3-0.6-0.1-1.3,0.5-1.6c0.1-0.1,0.4-0.4,0.5-0.5
						c-0.2-0.2-0.3-0.4-0.4-0.6c-0.2,0.1-0.4,0.2-0.6,0.2c-0.5,0-0.8-0.2-1-0.4c-0.7-0.5-1-1.1-0.9-1.9c-1.4-1-1.9-2.5-2.4-3.8
						c0-0.1-0.1-0.2-0.1-0.3c-0.1,0.2-0.3,0.4-0.7,0.5c-0.1,0-0.3,0.1-0.4,0.1c-0.3,0-0.5-0.1-0.7-0.2c-0.3-0.2-0.4-0.5-0.6-0.8
						c-0.1,0-0.2,0.1-0.4,0.1c-0.1,0-0.2,0-0.3,0c-0.2-0.1-0.5-0.2-0.6-0.5c-0.2-0.3-0.2-0.6-0.1-0.9c0.1-0.5,0.6-0.9,1.1-0.9
						c0,0,0.1,0,0.1,0c0,0,0-0.1,0-0.1c0.1-0.1,0.2-0.3,0.4-0.4c-0.3-0.2-0.5-0.5-0.7-0.7c-0.6-1-0.2-1.7,0.2-2.1l0.2-0.2
						c0.2-0.2,0.6-0.6,1.1-0.6c0,0,0-0.1,0.1-0.1c0.1-0.1,0.2-0.2,0.3-0.3c-0.2-0.3-0.8-1.8-1-2.2c0-0.1-0.2-0.2-0.3-0.2l-0.3-0.2
						c-1.1-0.9-1.7-2.1-1.8-3.8c0-0.2,0-0.4,0.1-0.6c-0.1-0.1-0.1-0.1-0.2-0.2c0-0.1-0.1-0.1-0.1-0.2c-0.1,0.4-0.5,0.7-1,0.7
						c-0.1,0-0.3,0-0.4-0.1c-0.6-0.2-1-0.7-1.2-1.4c-0.1-0.3,0-0.7,0.2-1c0-0.1,0.1-0.1,0.1-0.2c-0.4-0.1-0.9-0.3-1-0.8
						c-0.1-0.3-0.1-0.7-0.1-1l0-0.4c0-0.5,0-0.8-0.1-1c-0.1-0.2-0.2-0.5-0.1-0.7c-0.3-0.2-0.5-0.6-0.5-1.1c0,0,0-0.1,0-0.2
						c0-0.1,0-0.3,0-0.4c-0.1,0.2-0.3,0.3-0.5,0.4c-0.1,0-0.2,0-0.3,0c-0.4,0-0.9-0.2-1.1-0.6c-0.7-1.4-0.9-2.9-0.7-4.7
						c0-0.2,0.1-0.6,0.7-0.8c0,0,0,0,0,0c0.1,0,0.7-0.4,0.6-0.4c-0.9-0.1-1.5-0.6-1.7-1.5c-0.1-0.7-0.1-1.2,0.2-1.7
						c0.2-0.4,0.6-0.5,0.8-0.6c0,0,0,0,0,0c0-0.1,0-0.2,0.1-0.3c0-0.1,0-0.2,0-0.3c-0.1,0-0.3,0.1-0.4,0.1c-0.5,0-1.1-0.3-1.2-1.3
						c0-0.2,0-0.4,0-0.6c0-0.6,0.4-1,0.8-1.1c0-0.1,0-0.2-0.1-0.2c0,0-0.1-0.3-0.1-0.3c-0.1-0.6-0.4-1.5,0.4-2.4c0,0,0-0.2-0.2-0.4
						c0,0-0.1-0.1-0.1-0.1c-0.2-0.2-0.6-0.5-0.7-1.1c-0.1-0.6-0.2-2.5-0.2-3.1c0-0.9-0.1-1.7-0.2-2.6c-0.1-0.6-0.1-1.2-0.1-1.7
						c0-0.6,0-1.2-0.1-1.8c-0.1-0.4-0.1-0.9-0.1-1.3l0-0.3c0-0.6-0.1-1.4-0.3-2.1c-0.1-0.7-0.2-1.5-0.2-2.3c0-0.2,0-1,0-1
						c0-0.1,0-0.3,0-0.4c-0.4-0.5-0.5-1.1-0.3-1.9c0-0.2,0-0.3,0.1-0.5c0-0.5,0.1-1,0.3-1.5c-0.1-0.5-0.2-0.9-0.2-1.3
						c0-0.2,0-0.4-0.1-0.5c-0.2-0.6-0.1-1.3,0-1.8c0-0.5,0.1-0.8,0-1.2c0-0.1-0.1-0.3,0-0.5c0.2-0.5,0.2-1.1,0.3-1.7
						c0-0.3,0.1-0.5,0.1-0.8c0.1-0.4,0.1-0.8,0-1.1c0-0.1,0-0.3,0-0.4c0.2-0.7,0.3-1.4,0.3-2.1l0-0.2c0.1-0.8,0.1-1.5,0.4-2.3
						c0.2-0.6,0.3-1.2,0.3-1.9c0-0.2,0.1-0.5,0.1-0.7c0.3-2.3,0.6-4.2,0.8-6c0.1-0.5,0.2-0.9,0.3-1.4c0.1-0.2,0.1-0.4,0.2-0.6
						c0.1-0.4,0.2-0.7,0.3-1.1c0.3-0.9,0.5-1.6,0.5-2.4c0-0.1,0-0.1,0-0.2c0-0.1,0.1-0.2,0.1-0.2c0.3-0.5,0.4-1,0.6-1.7
						c0.1-0.5,0.2-1,0.4-1.5l0.1-0.2c0.1-0.3,0.2-0.5,0.2-0.7c0-0.4,0.1-0.7,0.3-1c0.3-0.3,0.4-0.7,0.5-1.4c0,0,0.1-0.5,0.1-0.6
						c0.1-0.3,0.2-0.7,0.4-1.1c0.4-0.8,0.8-1.6,1.2-2.6l0.3-0.7c0.2-0.5,0.5-0.9,0.7-1.3c0.1-0.2,0.2-0.3,0.3-0.5
						c0.2-0.3,0.9-0.6,0.8-0.7c-0.2-0.3-0.2-0.7,0-1.1c0,0,0.6-1.1,0.7-1.4c0.2-0.4,0.6-0.7,1.1-0.8c0,0,0,0,0.1,0
						c-0.1-0.1-0.1-0.1-0.1-0.2c-0.3-0.7,0.2-1.4,0.5-1.8c0.2-0.3,0.4-0.5,0.6-0.8c0.2-0.2,0.3-0.4,0.2-0.4
						c-0.3-0.1-0.8-0.4-0.6-1.4c0.2-0.6,0.1-0.7,0-0.9c-0.2-0.3-0.3-0.7-0.1-1.1c0.2-0.3,0.5-0.5,0.9-0.5c0,0,0.2,0,0.2,0
						c0.4,0.1,0.8,0.2,1.2,0.3c0,0,0.1,0,0.1,0c0.2,0,0.6,0.1,0.8,0.4c0.1,0.2,0.3,0.5,0.3,0.9c0,0.3-0.2,0.9-1,1
						c0,0.3-0.1,0.6-0.4,0.9c-0.1,0.1,0.3,0.7,0.4,0.9c0.1,0.2,0.4,0.6,0.3,1.1c0,0.1-0.1,0.3-0.1,0.4l0,0.4c0,0.3,0,0.5-0.1,0.7
						c-0.1,0.5-0.6,0.9-1.1,0.9h0c-0.2,0-0.4,0-0.5-0.1c-0.1,0-0.2,0-0.3,0c0.1,0.3,0.1,0.6,0,0.8c-0.2,0.5-0.5,1.1-0.8,1.6
						c-0.2,0.3-0.5,0.7-1.3,0.7c0,0,0,0.5,0,0.8c0,0.5-0.2,1-0.3,1.4c-0.1,0.2-0.1,0.4-0.2,0.6c0,0.1-0.1,0.2-0.1,0.3
						c0.2,0.1,0.3,0.3,0.3,0.3c0.2,0.4,0.3,0.9,0.1,1.3c-0.2,0.4-0.5,0.7-1,0.7c0.3,0.8,0.1,1.7-0.1,2.2c0,0.1-0.1,0.3-0.1,0.4
						c-0.2,0.7-0.4,1.5-0.2,2.2c0.1,0.4,0.2,1.2-0.3,1.8c0,0.7-0.4,1.3-1,1.8c0.2,0.3,0.3,0.5,0.3,0.9c0.1,0.6,0,1.1-0.3,1.7
						c0,0,0,0.1-0.1,0.1c0.1,0.2,0.2,0.4,0.3,0.6c0.1,0.1,0.2,0.2,0.3,0.3c0.2,0.2,0.3,0.6,0,1.2c-0.3,0.7-0.2,1.6,0.3,2.3
						c0.1,0.2,0.4,0.5,0.3,1c0,0.2-0.1,0.3-0.2,0.5c0.2,0.2,0.3,0.5,0.3,0.9c0,1-0.7,1.3-1.2,1.3c0,0-0.1,0-0.1,0
						c0,0.2-0.1,0.4-0.1,0.7c0,0,0,0.1,0,0.1c-0.2,0.7-0.3,1.2,0,1.7c0.5,0.9,0.1,1.9-0.2,2.5c-0.1,0.3-0.1,0.6-0.2,1
						c0,0,0,0.4,0,0.5c0.7,1,0.3,2,0,2.5c-0.2,0.5-0.3,1.1-0.3,1.6c0,0.3,0,0.6-0.1,0.9c-0.1,0.5-0.2,0.9-0.4,1.3
						c-0.1,0.3-0.2,0.6-0.3,0.8c-0.1,0.3-0.3,0.5-0.5,0.6c0,0.1,0,0.1,0.1,0.2c0.2-0.3,0.5-0.5,0.8-0.5c0,0,0.1,0,0.2,0
						c0.2,0,0.4,0.2,0.6,0.4c0.4,0.5,0.3,1,0.3,1.2c0.1,0.2,0.3,0.7,0,1.1c-0.1,0.1-0.2,0.3-0.4,0.4c0.4,0.2,0.9,0.7,0.8,1.7
						c0,0,0,0.1,0,0.2c0,0.1-0.1,0.2-0.1,0.4c-0.1,0.3-0.4,0.6-0.9,0.7c0,0,0,0-0.1,0h0c-0.2,0-0.3-0.1-0.5-0.1c0,0,0,0,0,0
						c-0.1,0.4-0.1,0.7,0.4,1.4c0.3,0.3,0.3,0.7,0.2,1c0,0.1,0,0.2,0,0.3c0.2,0.5,0.5,0.6,0.5,0.6c0.3-0.7,1.1-1,1.7-1
						c0.5,0,1,0.2,1.2,0.7c0.1,0.2,0.2,0.6,0.2,0.9c0,0.4,0,0.9,0,1.2v0.3c0,0.2,0,0.5,0,0.7c0,0.9,0.1,1.8-0.5,2.4
						c-0.4,0.4-0.8,0.5-1,0.5c-0.2,0-0.3,0-0.4-0.1c0.1,0.1,0.3,0.2,0.3,0.3c0.3,0.3,0.4,0.6,0.5,0.9l0.2,0.4
						c0.1,0.3,0.2,0.4,0.3,0.5c0.4,0.2,0.6,0.6,0.7,1c0,0.4-0.1,0.7-0.3,1.1c0.1,0.2,0.1,0.4,0,0.6c0.1,0.3,0.1,0.5,0,0.7
						c-0.1,0.4-0.5,0.7-1,0.8c-0.2,0-0.4,0.1-0.5,0.1c-0.2,0-0.3,0-0.5-0.1c-0.1,0.4-0.1,1.4,0,1.7c0,0,0.1,0.1,0.1,0.2
						c0.2,0.5,0,1-0.1,1.3c0,0,0,0,0,0c0.2,0.2,0.5,0.5,0.7,1c0.2,0.5,0,1-0.4,1.4c-0.1,0-0.1,0.1-0.1,0.1c0.3,0.3,0.4,0.7,0.4,0.9
						c0,0,0,0.1,0.3,0.3c0.6,0.6,0.5,1.4,0.4,1.7c0,0.2-0.1,0.4-0.1,0.6c0,0.4-0.1,0.8-0.2,1.2c0.3,0.4,0.5,0.7,0.6,1.1
						c0.2,0.4,0.3,0.6,0.4,0.8c0.2,0.2,0.4,0.6,0.2,1.2l-0.1,0.3c-0.1,0.3-0.1,0.5,0,0.6c0.2,0.4,0.1,0.9,0,1.3
						c-0.1,0.4-0.2,0.8,0.4,1.6c0.3,0.4,0.4,0.7,0.4,1.1c0.5,0.2,0.8,0.7,0.8,1.2c0,0.3,0.1,0.5,0.2,0.9c0.2,0.4,0.3,0.7,0.3,1
						c0,0.1,0.1,0.3,0.1,0.4c0.1,0.4,0.3,0.8,0.3,1.3c0,0,0,0.1,0.1,0.1l0.8,2.5c0.5,1.5,1,3,1.4,4.5c0.4,1.4,1,3,1.8,4.5
						c0.2,0.3,0.3,0.7,0.3,1c0.1,0.4,0.2,0.8,0.3,1.2c0.1,0.4,0.2,0.7,0.3,0.9c0.5,1.7,1,3,1.7,4.2c0.2,0.3,0.3,0.6,0.4,1
						c0.1,0.8,0.5,1.6,0.9,2.4c0.2,0.4,0.4,0.8,0.6,1.2c1.2,1.6,0.7,3.2,0.3,4.2c-0.2,0.4-0.6,0.8-1.1,0.8c-0.2,0-0.3,0-0.5-0.1
						c-0.1,0-0.3,0.1-0.7,0.4C247,298.6,246.8,298.7,246.8,298.7z M238.6,201.9c0.3,0,0.5,0.1,0.7,0.3c0.3,0.3,0.7,0.8,0.5,1.7
						c0,0.2-0.1,0.3-0.1,0.5l-0.1,0.3c-0.2,0.9-0.8,1-1.1,1c-0.1,0-0.2,0-0.3,0c-0.3-0.1-0.8-0.3-0.9-1.2c0-0.1,0-0.2,0-0.3l0-0.3
						c0,0,0-0.4,0-0.4C237.4,202.7,237.9,201.9,238.6,201.9z M238,197c0.1-0.3,0.2-0.8,0.2-1.2c0.1-0.7,0.2-1.5,0.6-2.2
						c0.2-0.4,0.4-0.8,0.4-1.2c0-0.6,0.5-1.1,1.2-1.1c0,0,0.2,0,0.2,0c0.7,0.1,1.1,0.7,0.9,1.4l0,0.2c0,0.2-0.1,0.6-0.3,0.9
						c-0.2,0.4-0.3,0.8-0.4,1.3c0,0.3-0.1,0.5-0.1,0.7c-0.2,0.7-0.3,1.3-0.5,2c-0.1,0.4-0.5,0.6-0.6,0.6c0,0-0.2,0.1-0.2,0.1
						c0,0-0.2,0-0.3,0c-0.4,0-0.9-0.3-1.1-0.6C237.9,197.6,237.8,197.3,238,197z M239,256.8c0.1-0.4,0.3-0.8,0.6-1c0,0,0,0,0-0.1
						c-0.1-0.2,0-0.4,0-0.6c0-0.7,0.4-1.1,1-1.2c0,0,0,0,0,0c0.6,0,1,0.3,1.2,0.8c0.1,0.1,0.1,0.3,0.1,0.4l0,0.2
						c0.1,0.6,0.2,1.1,0.4,1.5c0.1,0.2,0.2,0.5,0.2,0.7c0,0.1,0,0.2,0,0.3c0,0.3-0.1,1.3-1.2,1.5l-0.1,0c-0.2,0.2-0.5,0.2-0.7,0.2
						c-0.5,0-0.9-0.3-1.1-0.7C239.2,258.2,238.9,257.5,239,256.8z M251.2,303.2c-0.2,0.2-0.3,0.3-0.5,0.5c-0.1,0.1-0.1,0.1-0.2,0.2
						l-0.1,0.1c-0.1,0.1-0.3,0.2-0.5,0.2c-0.2,0-0.3-0.1-0.4-0.2l-0.1-0.1l-0.1-0.1c-0.2-0.1-0.5-0.3-0.6-0.8
						c-0.1-0.4-0.1-0.8,0.1-1.1c-0.7-0.1-1.2-0.6-1.2-1.4c0-0.1,0-0.1,0-0.2c0.1-0.7,0.7-1.1,1.4-1.1c0.5,0,0.8,0.2,1.1,0.5
						c0.2,0.2,0.4,0.6,0.3,0.9c0,0.2-0.1,0.3-0.1,0.4c0.2,0,0.4,0.1,0.6,0.2c0.4,0.2,0.6,0.5,0.6,0.8
						C251.7,302.6,251.4,303,251.2,303.2z M293,337l-0.2,0.1c-0.2,0.1-0.4,0.1-0.6,0.1c-0.8,0-1.5-0.7-2.3-1.5l-0.1-0.1
						c-0.3-0.3-0.6-0.6-0.9-0.8l-0.5-0.4c-0.3-0.3-0.7-0.5-1-0.8l-1.3-1.2l-0.9-0.9c-0.7-0.6-1.3-1.2-2-1.9l-2.7-3
						c-0.2-0.2-0.4-0.4-0.5-0.5c-0.3-0.2-0.5-0.5-0.8-0.8c-0.2-0.3-0.4-0.6-0.6-0.9l-0.1-0.1c-0.2-0.3-0.5-0.7-0.6-0.9
						c-0.4-0.5-0.8-0.9-1.2-1.2c-0.5-0.4-1-0.9-1.5-1.6c-0.3-0.5-0.7-1-1.1-1.6l-0.2-0.3c-2.8-4-3.6-5.5-3.3-6.3
						c0.1-0.3,0.3-0.5,0.6-0.7c0,0,0.2-0.1,0.2-0.1c0.1,0,0.2,0,0.2,0c0.2,0,0.4,0.1,0.5,0.3l1.3,1.7c0,0,0.3,0.4,0.4,0.5l3.1,3.8
						c0.5,0.7,1,1.3,1.6,1.8c0.3,0.4,0.7,0.8,1,1.1c0.4,0.5,1.7,2,1.7,2c0.3,0.3,0.6,0.7,0.9,1c0.9,1,1.9,1.8,3,2.8
						c0.9,0.8,1.8,1.7,2.8,2.6c0.3,0.4,0.6,0.9,0.7,1.3c0.1,0.3,0.3,0.7,0.4,0.8c0,0,0.6,0.7,0.7,0.8c0.1,0.1,0.2,0.3,0.4,0.4
						l0.3,0.3c1.2,1.2,2.1,2.2,3,3.2l0.1,0.1c0.1,0.2,0.2,0.4,0.2,0.6C293.4,336.7,293.2,336.9,293,337z M320.5,371
						c-0.2,0.3-0.5,0.5-0.9,0.5c-0.3,0-0.5,0.1-0.8,0.1c-0.1,0-0.2,0-0.3,0c-0.1,0-0.3-0.1-0.4-0.1c-0.2,0.4-0.5,0.8-1,0.9
						c-0.7,0.1-1.3,0.2-2,0.2c0,0,0,0,0,0h0c-0.6,0-1-0.5-1-0.6c-0.2-0.3-0.2-0.7-0.2-0.9c0.3-0.8,0.7-1.2,1.1-1.3
						c0.3,0,0.6-0.1,0.9-0.1c0.2,0,0.4,0,0.6,0c0.2,0,0.3,0,0.5,0c0.1,0,0.3,0,0.4,0.1c0.1-0.3,0.3-0.5,0.6-0.6
						c0.4-0.2,0.7-0.3,1.1-0.3c0.2,0,0.5,0,0.7,0.1c0.1,0,0.2,0.1,0.3,0.2c0,0,0.1,0.1,0.1,0.1c0.2,0.2,0.3,0.3,0.4,0.6
						C320.7,370.3,320.7,370.7,320.5,371z M328.4,370.4c-0.5,0.7-2.4,0.7-2.8,0.7h-0.1c-0.1,0-0.1,0-0.2,0c-0.2,0-0.3-0.1-0.5-0.1
						c-0.6-0.1-1-0.2-1.3-0.5c-0.3-0.3-0.4-0.7-0.2-1.1c0.4-0.9,1.8-1,2.7-1c0.3,0,0.6,0,0.9,0.1c0.5,0.1,1.5,0.4,1.7,1.1
						C328.6,369.9,328.6,370.2,328.4,370.4z"/>
				</g>
			</g>
		</g>
	</g>
</g>
<g id="Guides" class="st1">
	<line class="st2" x1="-1054.5" y1="106.9" x2="-1765.2" y2="106.9"/>
	<line class="st2" x1="-1054.5" y1="623" x2="-1765.2" y2="623"/>
	<line class="st2" x1="-1161.4" y1="0" x2="-1161.4" y2="728.7"/>
	<line class="st2" x1="-1658.3" y1="0" x2="-1658.3" y2="728.7"/>
	<text transform="matrix(1 0 0 1 -1146.7228 65.711)" class="st3 st4 st5 st6">1.5x</text>
	<text transform="matrix(1 0 0 1 -1750.4757 65.711)" class="st3 st4 st5 st6">1.5x</text>
	<text transform="matrix(1 0 0 1 -1146.7228 689.1274)" class="st3 st4 st5 st6">1.5x</text>
	<text transform="matrix(1 0 0 1 -1750.4757 689.1274)" class="st3 st4 st5 st6">1.5x</text>
	<line class="st2" x1="710.6" y1="106.9" x2="0" y2="106.9"/>
	<line class="st2" x1="710.6" y1="623" x2="0" y2="623"/>
	<line class="st2" x1="603.8" y1="0" x2="603.8" y2="728.7"/>
	<line class="st2" x1="106.9" y1="0" x2="106.9" y2="728.7"/>
	<text transform="matrix(1 0 0 1 618.4381 65.711)" class="st3 st4 st5 st6">1.5x</text>
	<text transform="matrix(1 0 0 1 14.6852 65.711)" class="st3 st4 st5 st6">1.5x</text>
	<text transform="matrix(1 0 0 1 618.4381 689.1274)" class="st3 st4 st5 st6">1.5x</text>
	<text transform="matrix(1 0 0 1 14.6852 689.1274)" class="st3 st4 st5 st6">1.5x</text>
	<line class="st2" x1="-216.9" y1="106.9" x2="-927.5" y2="106.9"/>
	<line class="st2" x1="-216.9" y1="623" x2="-927.5" y2="623"/>
	<line class="st2" x1="-323.7" y1="0" x2="-323.7" y2="728.7"/>
	<line class="st2" x1="-820.6" y1="0" x2="-820.6" y2="728.7"/>
	<text transform="matrix(1 0 0 1 -309.0457 65.711)" class="st3 st4 st5 st6">1.5x</text>
	<text transform="matrix(1 0 0 1 -912.7987 65.711)" class="st3 st4 st5 st6">1.5x</text>
	<text transform="matrix(1 0 0 1 -309.0457 689.1274)" class="st3 st4 st5 st6">1.5x</text>
	<text transform="matrix(1 0 0 1 -912.7987 689.1274)" class="st3 st4 st5 st6">1.5x</text>
	<line class="st2" x1="-1892.2" y1="106.9" x2="-2602.8" y2="106.9"/>
	<line class="st2" x1="-1892.2" y1="623" x2="-2602.8" y2="623"/>
	<line class="st2" x1="-1999.1" y1="0" x2="-1999.1" y2="728.7"/>
	<line class="st2" x1="-2496" y1="0" x2="-2496" y2="728.7"/>
	<text transform="matrix(1 0 0 1 -1984.4004 65.711)" class="st3 st4 st5 st6">1.5x</text>
	<text transform="matrix(1 0 0 1 -2588.1533 65.711)" class="st3 st4 st5 st6">1.5x</text>
	<text transform="matrix(1 0 0 1 -1984.4004 689.1274)" class="st3 st4 st5 st6">1.5x</text>
	<text transform="matrix(1 0 0 1 -2588.1533 689.1274)" class="st3 st4 st5 st6">1.5x</text>
</g>
</svg>
